<svg width="120" height="76" viewBox="0 0 120 76" fill="none" xmlns="http://www.w3.org/2000/svg">
<path d="M0.441528 75.9512V66.964H7.70236C8.3892 66.964 8.87979 67.1105 9.17415 67.3548C9.46851 67.6478 9.61569 68.0874 9.61569 68.6735V69.6992C9.61569 70.1877 9.51757 70.5296 9.27227 70.7738C9.02697 71.018 8.6345 71.1645 8.1439 71.2134C8.6345 71.2622 9.02697 71.4576 9.32133 71.7506C9.56663 72.0437 9.71381 72.4345 9.71381 72.9717V74.0951C9.71381 74.6812 9.51757 75.1208 9.07603 75.4139C8.68356 75.7069 8.04578 75.8535 7.21176 75.8535H0.441528V75.9512ZM8.09484 69.8458V68.9666C8.09484 68.6735 8.04578 68.4782 7.8986 68.3316C7.75142 68.2339 7.50612 68.1851 7.16271 68.1851H1.96238V70.6761H7.16271C7.50612 70.6761 7.75142 70.6273 7.8986 70.4807C7.99672 70.3342 8.09484 70.1388 8.09484 69.8458ZM8.1439 73.6555V72.9229C8.1439 72.5321 8.09484 72.2391 7.94766 72.0926C7.80048 71.946 7.55518 71.8483 7.16271 71.8483H1.96238V74.7301H7.16271C7.55518 74.7301 7.80048 74.6324 7.94766 74.4859C8.09484 74.3393 8.1439 74.0463 8.1439 73.6555Z" fill="black"/>
<path d="M14.1782 75.9512V66.964H21.4391C22.1259 66.964 22.6165 67.1105 22.9108 67.3548C23.2052 67.6478 23.3524 68.0874 23.3524 68.6735V70.6761C23.3524 71.2622 23.2052 71.7018 22.9108 71.9949C22.6165 72.2879 22.1259 72.3856 21.4391 72.3856H20.1144L24.2355 75.9023H21.9787L18.2992 72.3856H15.65V75.9023H14.1782V75.9512ZM20.8503 68.1363H15.65V71.3111H20.8013C21.1938 71.3111 21.4391 71.2622 21.5862 71.1157C21.7334 70.9692 21.7825 70.7249 21.7825 70.383V69.0643C21.7825 68.7224 21.7334 68.4782 21.5862 68.3316C21.4391 68.1851 21.1938 68.1363 20.8503 68.1363Z" fill="black"/>
<path d="M38.7571 75.9512L43.6631 66.964H45.2821L50.2862 75.9512H48.6181L47.4898 73.7532H41.3573L40.2289 75.9512H38.7571ZM41.9951 72.581H46.852L44.399 67.9897L41.9951 72.581Z" fill="black"/>
<path d="M58.4791 66.964C59.3132 66.964 60 67.0128 60.5397 67.1105C61.0793 67.2082 61.5699 67.4036 61.9133 67.6478C62.502 68.0386 62.9436 68.527 63.287 69.2108C63.6304 69.8946 63.7776 70.5784 63.7776 71.4087C63.7776 72.2391 63.6304 73.0206 63.287 73.6555C62.9436 74.3393 62.502 74.8766 61.9133 75.2185C61.5208 75.4627 61.0793 75.6092 60.5397 75.7558C60 75.8535 59.3132 75.9023 58.4791 75.9023H53.5241V66.9152H58.4791V66.964ZM58.2829 68.1851H55.045V74.6812H58.2829C59.7547 74.6812 60.7849 74.437 61.3737 73.8997C61.9624 73.4113 62.2567 72.5321 62.2567 71.3599C62.2567 70.2365 61.9624 69.4062 61.3246 68.9177C60.6868 68.4293 59.7056 68.1851 58.2829 68.1851Z" fill="black"/>
<path d="M67.9967 75.9512V66.964H75.2575C75.9444 66.964 76.435 67.1105 76.7293 67.3548C77.0237 67.6478 77.1709 68.0874 77.1709 68.6735V69.6992C77.1709 70.1877 77.0727 70.5296 76.8274 70.7738C76.5821 71.018 76.1897 71.1645 75.6991 71.2134C76.1897 71.2622 76.5821 71.4576 76.8765 71.7506C77.1218 72.0437 77.269 72.4345 77.269 72.9717V74.0951C77.269 74.6812 77.0727 75.1208 76.6312 75.4139C76.2387 75.7069 75.6009 75.8535 74.7669 75.8535H67.9967V75.9512ZM75.6009 69.8458V68.9666C75.6009 68.6735 75.5519 68.4782 75.4047 68.3316C75.2575 68.2339 75.0122 68.1851 74.6688 68.1851H69.4685V70.6761H74.6688C75.0122 70.6761 75.2575 70.6273 75.4047 70.4807C75.5519 70.3342 75.6009 70.1388 75.6009 69.8458ZM75.6991 73.6555V72.9229C75.6991 72.5321 75.65 72.2391 75.5028 72.0926C75.3556 71.946 75.1104 71.8483 74.7179 71.8483H69.5175V74.7301H74.7179C75.1104 74.7301 75.3556 74.6324 75.5028 74.4859C75.6009 74.3393 75.6991 74.0463 75.6991 73.6555Z" fill="black"/>
<path d="M79.9182 75.9512L84.8242 66.964H86.4432L91.4472 75.9512H89.7792L88.6508 73.7532H82.5674L81.4391 75.9512H79.9182ZM83.2052 72.581H88.0621L85.6091 67.9897L83.2052 72.581Z" fill="black"/>
<path d="M94.7343 75.9511V66.964H95.6664L102.437 72.9717C102.584 73.1182 102.731 73.2648 102.927 73.4601C103.123 73.6555 103.271 73.8509 103.467 74.0951C103.418 73.802 103.369 73.509 103.369 73.1671C103.369 72.874 103.32 72.4344 103.32 71.8483V66.9152H104.693V75.9023H103.859L96.9419 69.6504C96.8929 69.6015 96.8438 69.5527 96.7948 69.5039C96.4513 69.2108 96.206 68.9177 96.0589 68.6247C96.1079 68.9177 96.1079 69.2108 96.157 69.5039C96.157 69.7969 96.206 70.1877 96.206 70.5784V75.8535H94.7343V75.9511Z" fill="black"/>
<path d="M114.652 66.964C115.486 66.964 116.173 67.0128 116.713 67.1105C117.253 67.2082 117.743 67.4036 118.087 67.6478C118.675 68.0386 119.117 68.527 119.46 69.2108C119.804 69.8946 119.951 70.5784 119.951 71.4087C119.951 72.2391 119.804 73.0206 119.46 73.6555C119.117 74.3393 118.675 74.8766 118.087 75.2185C117.694 75.4627 117.253 75.6092 116.713 75.7558C116.173 75.8535 115.486 75.9023 114.652 75.9023H109.697V66.9152H114.652V66.964ZM114.456 68.1851H111.218V74.6812H114.456C115.928 74.6812 116.958 74.437 117.547 73.8997C118.136 73.4113 118.43 72.5321 118.43 71.3599C118.43 70.2365 118.136 69.4062 117.498 68.9177C116.909 68.4293 115.879 68.1851 114.456 68.1851Z" fill="black"/>
<path fill-rule="evenodd" clip-rule="evenodd" d="M91.3491 9.2802L85.1676 16.5578C80.8504 12.0154 75.5029 9.37789 69.7629 9.37789C64.8078 9.37789 60.6378 10.9897 57.2527 14.3111C53.9166 17.5835 52.1995 21.5887 52.1995 26.2776C52.1995 31.1131 53.9657 35.2648 57.3998 38.635C60.8831 42.0051 65.2003 43.7146 70.3025 43.7146C73.6386 43.7146 76.435 43.0308 78.6917 41.6144C80.9975 40.1979 82.8128 38.0488 84.2355 35.0694H69.6648L77.2199 26.0823H95.0777L95.1267 28.1825C95.1267 32.5784 93.9984 36.7301 91.6926 40.6864C89.3867 44.6427 86.4432 47.6221 82.8128 49.7224C79.1823 51.8226 74.9141 52.8483 70.0082 52.8483C64.7588 52.8483 60.0981 51.7249 55.9771 49.4293C51.8561 47.1825 48.6182 43.91 46.2142 39.7095C43.8103 35.509 42.6329 30.9666 42.6329 26.1311C42.6329 19.4884 44.8406 13.6761 49.2559 8.74293C54.5053 2.93059 61.3246 0 69.7138 0C74.1292 0 78.2502 0.830334 82.0769 2.44216C85.3148 3.80977 88.2584 5.91003 91.3491 9.2802Z" fill="#FF0E00"/>
<path fill-rule="evenodd" clip-rule="evenodd" d="M0 0.341888H11.9215C19.6239 0.341888 25.3148 1.31875 29.0433 3.17479C32.7719 5.07968 35.8626 8.1568 38.2666 12.4062C40.6705 16.6555 41.897 21.6375 41.897 27.3522C41.897 31.4062 41.2101 35.1182 39.8855 38.5373C38.5119 41.9074 36.6476 44.7403 34.2927 46.9871C31.8888 49.2339 29.3377 50.7969 26.5413 51.6272C23.7939 52.5064 18.937 52.8972 12.1177 52.8972H0V45.0334L10.0082 33.018L0 32.1877V0.341888ZM10.0082 33.018V43.1285H14.6688C19.2805 43.1285 22.6165 42.5912 24.677 41.5655C26.7375 40.5398 28.4546 38.7815 29.7792 36.2905C31.1038 33.7995 31.7416 30.7712 31.7416 27.1568C31.7416 21.5887 30.1717 17.2416 27.0319 14.1645C24.2355 11.4293 19.6729 10.0128 13.4424 10.0128H10.0572V20.2699L0 32.1877L10.0082 33.018Z" fill="#FF0E00"/>
<path d="M95.372 51.5296V47.1337H101.848V44.545H105.675V47.1337H119.46V51.5296H105.675V53.7763H101.848V51.5296H95.372Z" fill="black"/>
<path d="M111.954 24.6169V38.7326C113.23 38.5373 114.211 38 114.947 37.1208C115.683 36.2416 116.075 35.1182 116.075 33.7506C116.075 32.09 115.487 30.6735 114.358 29.5013L116.124 25.7892C117.449 26.7172 118.43 27.8406 119.068 29.1105C119.706 30.3804 120 31.9434 120 33.7018C120 36.437 119.117 38.6838 117.4 40.4421C115.634 42.1517 113.475 43.0308 110.875 43.0308C108.177 43.0308 105.969 42.1517 104.203 40.4421C102.437 38.7326 101.554 36.5347 101.554 33.946C101.554 31.1619 102.437 28.964 104.203 27.2056C105.969 25.4961 108.324 24.6169 111.218 24.6169H111.954ZM108.471 29.0128C107.49 29.3059 106.705 29.892 106.067 30.7223C105.429 31.6015 105.135 32.5784 105.135 33.7018C105.135 34.9229 105.478 35.9974 106.165 36.9254C106.607 37.5115 107.343 38.0488 108.471 38.5373V29.0128Z" fill="black"/>
<path d="M95.0777 21.0514V16.6555H109.109L101.848 10.1594V4.6401L110.286 12.2108L119.46 3.76093V9.23136L111.366 16.6067H119.46V21.0026H95.0777V21.0514Z" fill="black"/>
<path d="M1.76616 56.6581V61.6889H6.08341V56.6581H7.60427V61.3959C7.60427 61.982 7.50615 62.3239 7.26085 62.5681C7.01555 62.7635 6.62307 62.8612 5.9853 62.8612H1.91334C1.27557 62.8612 0.834029 62.7635 0.63779 62.5681C0.392492 62.3727 0.294373 61.982 0.294373 61.3959V56.6581H1.76616Z" fill="black"/>
<path d="M13.9821 62.8612V56.6581H15.5029V61.6889H20.3598V62.8612H13.9821Z" fill="black"/>
<path d="M27.8168 57.7815V62.8612H26.296V57.7815H23.3033V56.6581H30.8585V57.7815H27.8168Z" fill="black"/>
<path d="M36.3533 62.8612V56.6581H41.9461C42.4367 56.6581 42.8292 56.7558 43.0745 56.9511C43.3197 57.1465 43.4179 57.4396 43.4179 57.8792V59.3445C43.4179 59.784 43.3197 60.0771 43.0745 60.2725C42.8292 60.4679 42.4857 60.5655 41.9461 60.5655H41.1121L44.0556 62.91H41.897L39.2969 60.5655H37.8741V62.91H36.3533V62.8612ZM41.3083 57.7326H37.8251V59.4421H41.3083C41.5536 59.4421 41.7498 59.3933 41.848 59.3445C41.9461 59.2956 41.9951 59.1491 41.9951 58.9537V58.2211C41.9951 58.0257 41.9461 57.928 41.848 57.8303C41.7498 57.7326 41.6027 57.7326 41.3083 57.7326Z" fill="black"/>
<path d="M48.0294 62.8612L51.7089 56.6581H53.1807L56.9092 62.8612H55.1921L54.4072 61.4936H50.2862L49.5012 62.8612H48.0294ZM51.0221 60.3702H53.8675L52.3957 57.7815L51.0221 60.3702Z" fill="black"/>
<path d="M75.601 62.8612V56.6581H82.2241V57.7815H77.1709V59.3933H79.9183V60.5655H77.1709V62.8612H75.601Z" fill="black"/>
<path d="M85.2657 62.8612L88.9452 56.6581H90.417L94.1455 62.8612H92.4285L91.6435 61.4936H87.5225L86.7375 62.8612H85.2657ZM88.2093 60.3702H91.0548L89.583 57.7815L88.2093 60.3702Z" fill="black"/>
<path d="M105.086 57.7815H100.818V59.1002H104.89C105.527 59.1002 105.969 59.1979 106.165 59.3933C106.361 59.5887 106.509 59.9794 106.509 60.5655V61.3959C106.509 61.982 106.41 62.3727 106.165 62.5681C105.92 62.7635 105.527 62.8612 104.89 62.8612H100.867C100.229 62.8612 99.7874 62.7635 99.5421 62.5681C99.2968 62.3727 99.1987 61.982 99.1987 61.3959V61.2005L100.572 60.9563V61.6889H105.135V60.2725H101.063C100.425 60.2725 99.9837 60.1748 99.7874 59.9794C99.5912 59.784 99.444 59.3933 99.444 58.8072V58.1234C99.444 57.5861 99.5421 57.1954 99.7874 56.9511C100.033 56.7069 100.425 56.6581 101.063 56.6581H104.742C105.38 56.6581 105.822 56.7558 106.018 56.9511C106.214 57.1465 106.361 57.4884 106.361 57.9768V58.1234L105.037 58.4164V57.7815H105.086Z" fill="black"/>
<path d="M116.37 57.7815V62.8612H114.849V57.7815H111.856V56.6581H119.411V57.7815H116.37Z" fill="black"/>
<path fill-rule="evenodd" clip-rule="evenodd" d="M35.9117 71.1157L37.5797 70.4807C36.9419 69.2108 35.8136 67.9409 34.9305 67.3547C29.1905 63.4473 21.9787 69.5038 25.5601 75.9511C23.9902 72.4344 26.2469 68.0385 29.6811 67.3547C31.4473 67.0128 33.4096 67.7455 34.6361 69.0154C34.7833 69.1619 34.9305 69.3573 35.0286 69.5527C35.2739 70.0411 35.6664 70.6761 35.9117 71.1157Z" fill="#FF0E00"/>
<path fill-rule="evenodd" clip-rule="evenodd" d="M30.417 73.6067L38.4137 70.8715C38.0703 71.1157 31.9869 74.9255 31.7416 75.072C31.1529 75.4627 30.8585 75.707 30.3189 75.6581C29.7301 75.6093 29.3867 75.1697 29.4358 74.6324C29.4848 74.0463 29.8773 73.7532 30.417 73.6067Z" fill="#FF0E00"/>
</svg>
