<svg width="51" height="51" viewBox="0 0 51 51" fill="none" xmlns="http://www.w3.org/2000/svg">
<g clip-path="url(#clip1)">
<path d="M26.6951 12.518L17.7301 0.56471C17.1669 -0.188237 15.9033 -0.188237 15.3401 0.56471L6.37516 12.518C5.63815 13.4986 6.3398 14.9081 7.57017 14.9081H12.0527V43.297C12.0527 44.1229 12.721 44.7912 13.5468 44.7912H19.5234C20.3493 44.7912 20.9976 44.1229 20.9976 43.297V14.9081H25.5C26.7314 14.9081 27.4313 13.4976 26.6951 12.518Z" fill="#E82F37"/>
<path d="M49.4257 36.0591H44.9233V7.67004C44.9233 6.84418 44.2749 6.1759 43.4491 6.1759H37.4724C36.6465 6.1759 35.9782 6.84418 35.9782 7.67004V36.059H31.4957C30.2653 36.059 29.5637 37.4685 30.3007 38.449L39.2658 50.4024C39.8623 51.1998 41.0601 51.1986 41.6558 50.4024L50.6207 38.4491C51.3569 37.4696 50.6571 36.0591 49.4257 36.0591Z" fill="#E82F37"/>
</g>
<defs>
<clipPath id="clip1">
<rect width="51" height="51" fill="white"/>
</clipPath>
</defs>
</svg>
