<svg width="51" height="51" viewBox="0 0 51 51" fill="none" xmlns="http://www.w3.org/2000/svg">
<path d="M32.0586 41.75H18.9413V45.4787H6.38861V48.467H44.6114V45.4787H32.0586V41.75Z" fill="#E82F37"/>
<path d="M18.5056 21.7949V16.2351L15.0317 21.7949H18.5056Z" fill="#E82F37"/>
<path d="M0 2.49023V38.7617H51V2.49023H0ZM23.6168 24.7833H21.4938V29.2276H18.5056V24.7833H11.6057V21.6394L17.6133 12.0239H21.4938V21.795H23.6171V24.7833H23.6168ZM38.6469 27.8319L35.9889 29.198L32.352 22.1199H30.2828V29.2276H27.2945V12.0239H30.2828V19.1316H32.352L35.9889 12.0539L38.6469 13.4196L34.9438 20.6258L38.6469 27.8319Z" fill="#E82F37"/>
</svg>
