<svg width="503" height="320" viewBox="0 0 503 320" fill="none" xmlns="http://www.w3.org/2000/svg">
<g clip-path="url(#clip0)">
<path d="M210.66 98.1401H140.363C139.664 98.1401 138.966 98.1401 138.268 98.2566C137.569 98.1401 136.871 98.1401 136.173 98.1401H38.6405C29.6787 98.1401 22.3463 100.003 22.3463 111.063V178.119C22.3463 185.221 29.6787 191.042 38.6405 191.042H136.056C136.755 191.042 137.453 191.042 138.151 190.925C138.85 191.042 139.548 191.042 140.246 191.042H210.66C219.622 191.042 226.955 185.221 226.955 178.119V111.063C226.955 100.468 219.622 98.1401 210.66 98.1401Z" fill="#F2C351"/>
<path d="M30.7262 222.358H15.8286V234H30.7262V222.358Z" fill="#2B352D"/>
<path d="M229.748 222.358H214.85V234H229.748V222.358Z" fill="#2B352D"/>
<path d="M153.98 179.4H124.767H30.7262V225.851H124.767H153.98H219.971V179.4H153.98Z" fill="#F2C351"/>
<path d="M153.98 179.4H124.767H30.7262V184.872H124.767H153.98H219.971V179.4H153.98Z" fill="#D19F30"/>
<path d="M9.07819 173.229C9.07819 185.337 9.07819 225.85 9.07819 225.85H37.2438C37.2438 225.85 37.2438 176.256 37.2438 163.217C37.2438 150.295 20.6005 120.725 3.84077 138.537C-7.21599 150.412 9.07819 161.122 9.07819 173.229Z" fill="#D19F30"/>
<path d="M236.498 173.229C236.498 185.337 236.498 225.85 236.498 225.85H208.333C208.333 225.85 208.333 176.256 208.333 163.217C208.333 150.295 224.976 120.725 241.736 138.537C252.793 150.412 236.498 161.122 236.498 173.229Z" fill="#D19F30"/>
<path d="M79.0268 0H18.5055V61.7015H79.0268V0Z" fill="#4C5A5E"/>
<path d="M75.5351 3.49268H21.9971V58.2091H75.5351V3.49268Z" fill="#ECEDEF"/>
<path d="M65.0603 15.1343H32.472V46.5671H65.0603V15.1343Z" fill="white"/>
<path d="M38.2913 31.0835C38.2913 31.5491 38.2913 32.1312 38.4077 32.5969C38.7569 34.1103 38.5241 35.7402 38.9896 37.2536C39.3388 38.4178 39.9207 39.2327 41.0846 39.582C42.1321 39.9312 42.9468 40.3969 43.7615 40.979C44.2271 41.3282 44.6926 41.5611 45.2745 41.7939C46.322 42.1432 47.1367 41.6775 47.7187 40.979C47.7187 41.0954 47.8351 41.2118 47.8351 41.4447C47.8351 41.5611 48.0678 41.6775 48.1842 41.6775C48.7662 41.3282 49.1153 40.7461 49.5809 40.3969C49.93 40.7461 50.3956 41.0954 50.9775 41.2118C51.9086 41.4447 53.0725 40.6297 53.8872 40.3969C54.7019 40.0476 55.7494 39.8148 56.4477 39.2327C57.4952 38.3014 57.4952 36.5551 57.2624 35.0417C57.6116 35.2745 58.0771 35.2745 58.4263 35.0417C59.3574 34.576 59.0082 33.6447 59.3574 32.9461C59.7065 32.1312 60.6376 31.782 60.4049 30.8506C60.1721 29.8029 59.0082 29.6864 58.3099 29.1044C59.8229 26.8924 59.4738 24.4476 57.6116 22.4685C56.0985 20.7223 54.0036 19.5581 51.7922 20.9551C51.6758 20.9551 51.6758 21.0715 51.5594 21.1879C51.443 20.4894 51.0939 19.6745 50.3956 19.4417C50.0464 19.3252 49.6972 19.6745 49.3481 19.9073C48.8825 20.373 48.6498 20.8387 48.0678 20.373C47.7187 19.9073 47.2531 19.5581 46.7876 19.2088C45.3909 18.5103 43.5287 18.7432 42.5976 19.9073C41.6665 20.8387 41.0846 21.8864 40.0371 22.8178C39.4552 23.2835 38.7569 23.8655 38.4077 24.5641C38.1749 25.1461 38.1749 25.7282 38.2913 26.3103C37.9422 26.6596 37.8258 27.1252 37.593 27.5909C37.3602 28.173 36.7783 28.7551 36.7783 29.3372C36.6619 30.2685 37.3602 30.8506 38.2913 31.0835ZM51.2103 21.3044C50.3956 22.0029 49.8136 22.9342 49.4645 23.982C49.4645 22.9342 49.1153 21.8864 48.5334 20.9551C48.8825 20.9551 49.1153 20.7223 49.4645 20.373C49.5809 20.2566 49.8136 19.9073 49.93 19.9073C50.2792 19.7909 50.512 20.2566 50.7447 20.4894C50.9775 20.6058 51.0939 20.9551 51.2103 21.3044ZM56.6805 29.6864C54.7019 30.6178 52.6069 29.57 50.6283 29.1044C50.6283 28.9879 50.512 28.8715 50.512 28.7551C51.3267 28.6387 52.2578 28.4058 53.0725 28.0566C53.1889 27.9402 53.1889 27.7073 52.9561 27.7073C52.1414 27.8238 51.3267 28.2894 50.3956 28.5223C50.3956 28.4058 50.2792 28.2894 50.1628 28.173C50.8611 27.8238 51.443 27.3581 51.9086 26.776C52.025 26.6596 51.7922 26.5432 51.7922 26.6596C51.3267 27.2417 50.7447 27.7073 50.1628 28.173C50.0464 28.0566 49.93 27.9402 49.8136 27.8238C50.1628 27.3581 50.6283 26.8924 50.7447 26.3103C50.7447 26.1939 50.6283 26.1939 50.6283 26.1939C50.2792 26.6596 50.0464 27.2417 49.6972 27.7073C49.5809 27.7073 49.5809 27.5909 49.4645 27.5909C48.7661 27.2417 47.9514 27.2417 47.3695 27.4745C47.1367 26.6596 46.904 25.8447 46.4384 25.1461C46.4384 25.0297 46.322 25.1461 46.322 25.2626C46.6712 25.9611 47.0203 26.776 47.3695 27.4745C47.2531 27.4745 47.1367 27.5909 47.0203 27.7073C46.6712 27.1252 45.9729 26.6596 45.3909 26.1939C45.2745 26.0775 45.1582 26.1939 45.2745 26.3103C45.7401 26.8924 46.4384 27.2417 46.904 27.8238C46.6712 28.0566 46.5548 28.2894 46.4384 28.6387C45.8565 28.0566 45.1582 27.4745 44.4598 27.1252C44.3434 27.1252 44.3434 27.2417 44.3434 27.2417C45.0418 27.7073 45.6237 28.2894 46.322 28.7551V28.8715C46.2056 28.8715 46.0892 28.8715 45.9729 28.8715C45.9729 28.8715 45.9729 28.7551 45.8565 28.7551C44.5762 28.0566 43.0632 27.7073 41.6665 28.173C41.3174 28.2894 40.8518 28.4058 40.5027 28.5223C39.8043 27.8238 39.2224 27.1252 38.8733 26.3103C38.8733 26.1939 38.9896 26.1939 38.9896 26.0775C39.106 25.9611 38.8733 25.7282 38.7569 25.7282C38.6405 25.0297 38.8732 24.2148 39.688 23.5163C40.5027 22.8178 41.3174 22.2357 42.0157 21.3044C43.0632 19.7909 44.9254 18.2775 46.7876 19.6745C48.5334 20.9551 48.6498 22.9342 48.9989 24.7969C48.9989 24.9133 49.1153 24.9133 49.1153 24.9133C48.9989 25.6118 48.8825 26.3103 48.7662 26.8924C48.7662 27.0088 48.8825 27.0088 48.9989 26.8924C49.2317 24.9133 49.93 22.5849 51.6758 21.3044C53.7708 19.7909 55.9821 21.0715 57.3788 22.9342C58.3099 24.0984 59.0082 25.4954 58.4263 27.0088C58.0771 28.2894 57.6116 29.3372 56.6805 29.6864ZM46.0892 29.9193C45.9729 29.57 46.0892 29.4536 46.322 29.6864C46.4384 29.8029 46.6712 29.6864 46.7876 29.57C46.7876 29.57 46.904 29.57 46.904 29.4536C46.904 29.3372 47.0203 29.2208 47.0203 29.1044C47.1367 29.4536 47.6023 29.3372 47.6023 28.9879C47.4859 28.4058 47.9514 28.5223 48.1842 28.8715C48.1842 28.9879 48.3006 29.1044 48.3006 29.2208C48.3006 29.2208 48.3006 29.2208 48.3006 29.3372C48.3006 29.57 48.1842 29.6864 48.0678 29.9193C47.8351 30.0357 47.6023 30.1521 47.4859 30.3849C47.3695 30.2685 47.2531 30.2685 47.1367 30.3849C47.1367 30.3849 47.0203 30.3849 46.904 30.3849C46.7876 30.3849 46.6712 30.5014 46.6712 30.5014C46.5548 30.2685 46.2056 30.2685 46.0892 29.9193ZM48.1842 28.0566C48.1842 28.0566 48.0678 27.9402 47.9514 27.9402C48.0678 27.9402 48.3006 27.9402 48.417 27.9402C48.417 28.0566 48.3006 28.0566 48.1842 28.0566ZM48.5334 29.57C48.5334 29.6864 48.6498 29.8029 48.7662 29.9193C48.6498 29.9193 48.6498 29.9193 48.5334 29.9193C48.5334 29.6864 48.5334 29.57 48.5334 29.57ZM57.0296 33.6447C56.7969 32.2476 56.2149 31.0835 55.1674 30.5014C56.2149 30.5014 57.2624 30.1521 57.9607 29.3372C58.7754 30.1521 60.5212 30.5014 59.241 32.0148C58.8918 32.3641 58.659 32.7133 58.659 33.2954C58.659 33.5282 58.659 33.9939 58.5427 34.2267C58.1935 34.9252 57.6116 34.576 57.146 34.3432C57.146 34.1103 57.0296 33.8775 57.0296 33.6447ZM47.9514 34.576C47.9514 34.4596 47.8351 34.4596 47.7187 34.3432C47.4859 33.2954 47.4859 32.2476 47.6023 31.3163V31.1999C47.7187 31.1999 47.7187 31.1999 47.8351 31.1999C47.9514 31.1999 48.0678 31.1999 48.0678 31.1999C48.1842 31.1999 48.1842 31.1999 48.3006 31.1999C48.3006 31.1999 48.3006 31.1999 48.3006 31.3163C48.3006 31.4327 48.5334 31.5491 48.6498 31.4327C48.6498 31.3163 48.7662 31.3163 48.7662 31.1999C49.1153 31.3163 49.4645 31.0835 49.8136 30.7342C50.1628 31.0835 50.512 31.4327 50.9775 31.782C51.443 32.1312 51.9086 32.7133 52.3741 32.9461C52.4905 33.0626 52.6069 32.8297 52.4905 32.7133C52.1414 32.2476 51.5594 31.8984 51.0939 31.4327C50.7447 31.0835 50.2792 30.7342 49.93 30.5014C49.93 30.5014 49.93 30.5014 49.93 30.3849C50.0464 30.2685 50.1628 30.1521 50.1628 30.0357C50.2792 30.0357 50.3956 29.9193 50.512 29.8029C51.6758 30.0357 53.0725 30.5014 54.3527 30.6178C55.8658 31.4327 56.4477 32.7133 56.5641 34.576C56.6805 36.2058 57.2624 38.4178 55.5166 39.2327C54.3527 39.8148 51.0939 41.4447 50.0464 40.2805C48.7661 38.5342 48.5334 36.5551 47.9514 34.576ZM47.9514 40.7461C48.3006 40.1641 48.5334 39.4655 48.6498 38.767C48.8825 39.3491 49.2317 39.8148 49.5809 40.1641C49.1153 40.3969 48.7661 40.7461 48.417 40.979C48.417 40.8626 48.3006 40.7461 48.1842 40.7461C47.9514 40.7461 47.9514 40.7461 47.9514 40.7461ZM39.2224 32.9461C38.9896 32.1312 38.7569 31.0835 39.2224 30.3849C40.6191 28.5223 43.5287 28.5223 45.5073 29.4536C45.5073 29.57 45.5073 29.57 45.5073 29.6864C45.5073 29.8029 45.5073 29.9193 45.5073 30.0357C44.4598 30.2685 43.5287 31.3163 42.8304 32.0148C42.714 32.1312 42.8304 32.2476 42.9468 32.2476C43.8779 31.5491 44.4598 30.6178 45.5073 30.2685C45.6237 30.6178 45.9729 30.967 46.322 30.967C45.5073 31.8984 45.1582 33.0626 44.809 34.1103C44.809 34.2267 44.9254 34.3432 45.0418 34.2267C45.5073 33.179 45.1582 32.0148 45.8565 30.967H45.2745C45.2745 31.0835 45.9729 31.0835 46.0892 31.0835C46.0892 31.1999 46.5548 31.3163 46.6712 31.3163C46.7876 31.3163 47.0203 31.3163 47.0203 31.3163C46.7876 32.3641 47.0203 33.5282 47.3695 34.576C47.3695 34.576 47.3695 34.576 47.3695 34.6924C47.4859 35.7402 47.8351 37.1372 48.3006 38.4178C48.1842 39.6984 47.3695 41.3282 46.0892 41.4447C44.809 41.5611 44.1107 40.5133 43.1796 39.9312C42.3649 39.4655 41.201 39.3491 40.5027 38.767C39.4552 37.8357 39.4552 36.5551 39.4552 35.2745C39.4552 34.3432 39.4552 33.6447 39.2224 32.9461ZM37.2438 29.4536C37.2438 28.9879 37.4766 28.6387 37.7094 28.173C37.9422 27.7073 38.1749 27.3581 38.4077 26.8924C38.7569 27.5909 39.3388 28.173 40.0371 28.6387C39.4552 28.8715 38.8732 29.3372 38.5241 29.8029C38.4077 30.0357 38.2913 30.3849 38.1749 30.6178C37.8258 30.5014 37.2438 30.1521 37.2438 29.4536Z" fill="#BB9D6C"/>
<path d="M49.5809 31.0835C50.0464 31.782 50.5119 32.5969 50.7447 33.4119C50.7447 33.5283 50.6283 33.5283 50.512 33.4119C50.2792 32.5969 49.93 31.8984 49.4645 31.1999C49.3481 31.1999 49.4645 31.0835 49.5809 31.0835Z" fill="#BB9D6C"/>
<path d="M49.1153 31.8984C49.1153 31.8984 49.2317 31.8984 49.1153 31.8984C49.2317 32.8298 49.4645 33.6447 49.5808 34.4596C49.5808 34.576 49.4645 34.576 49.4645 34.4596C49.3481 33.6447 49.1153 32.8298 49.1153 31.8984Z" fill="#BB9D6C"/>
<path d="M44.2271 31.7821C44.6926 31.5493 45.1581 31.2 45.6237 30.7344C45.1581 31.2 44.809 31.6657 44.2271 31.7821C44.2271 31.8986 44.1107 31.8986 44.2271 31.7821Z" fill="#BB9D6C"/>
<path d="M225.674 0H163.989V61.7015H225.674V0Z" fill="#4C5A5E"/>
<path d="M222.183 3.49268H167.481V58.2091H222.183V3.49268Z" fill="#ECEDEF"/>
<path d="M210.544 15.1343H179.12V46.5671H210.544V15.1343Z" fill="white"/>
<path d="M183.775 32.9464C185.172 34.9255 186.685 36.5553 189.012 37.4867C189.478 37.7195 190.176 37.9523 190.875 38.1852C191.107 38.3016 191.34 38.418 191.573 38.5344L191.689 38.6509C192.853 38.8837 194.134 39.2329 195.297 39.1165C197.974 39.9314 201.233 39.9314 203.095 38.418C204.143 37.6031 205.074 36.4389 204.841 35.0419C204.841 34.8091 204.725 34.5762 204.492 34.4598C204.958 33.9941 204.958 32.4807 204.841 32.015C204.492 30.618 203.212 29.8031 201.815 30.0359C201.699 30.0359 201.699 30.1523 201.699 30.1523C201.582 30.0359 201.582 30.0359 201.466 29.9195C198.091 27.1255 195.996 30.0359 194.599 33.2956C194.599 32.83 194.715 32.4807 194.715 32.015C195.065 30.5016 195.414 28.9882 196.694 28.0568C196.927 27.824 197.392 27.5911 197.742 27.4747C197.742 27.4747 197.742 27.5912 197.858 27.5912L197.974 27.4747C198.789 27.2419 199.72 27.2419 200.418 27.7076C201.117 28.1732 201.233 29.3374 201.931 29.9195C202.048 30.0359 202.164 29.9195 202.048 29.8031C201.582 28.8717 201.466 27.4747 200.186 27.2419C199.604 27.1255 199.022 27.0091 198.44 27.0091C199.487 25.7285 200.418 24.5643 201.582 23.2837C201.466 23.5165 201.815 23.7494 202.048 23.6329V23.7494H202.164V23.6329C202.281 23.5165 202.048 23.4001 202.164 23.4001C202.281 23.2837 202.746 23.1673 202.048 22.9344H202.281C202.281 22.818 202.397 22.7016 202.281 22.7016C202.164 22.7016 202.048 22.7016 201.931 22.7016C201.815 22.818 201.582 23.0509 201.582 23.1673C200.302 24.3314 199.255 25.612 198.207 27.0091C197.858 27.0091 197.392 27.1255 197.043 27.3583C196.81 27.4747 196.578 27.7076 196.345 27.9404C197.043 26.3106 197.625 24.5643 198.323 22.9344C198.44 22.9344 198.556 22.9344 198.673 22.9344C198.905 22.818 199.022 22.7016 199.022 22.4688C199.022 22.3523 199.138 22.3523 199.138 22.2359L199.255 22.1195C199.371 21.8867 199.255 21.6538 199.138 21.5374C198.905 21.421 198.673 21.5374 198.556 21.6538C198.556 21.6538 198.556 21.7703 198.44 21.7703C198.44 21.7703 198.323 21.7703 198.323 21.8867V22.0031C198.207 22.1195 198.207 22.2359 198.091 22.4688C197.974 22.7016 198.091 22.818 198.323 22.9344C197.509 24.5643 196.81 26.3106 196.228 28.0568C196.112 28.1732 196.112 28.1732 195.996 28.2897C196.112 27.5911 195.879 26.6598 195.414 26.0777C195.996 24.4479 195.996 22.4688 195.297 20.9553C195.414 20.8389 195.53 20.6061 195.414 20.4897C195.297 20.2568 195.065 20.024 194.948 19.7912C194.715 19.4419 194.25 19.7911 194.366 20.1404C194.366 20.1404 194.366 20.1404 194.366 20.2568V20.3732C194.483 20.6061 194.599 20.8389 194.715 20.9553C194.832 21.0717 195.065 21.0717 195.181 21.0717C195.647 22.7016 195.414 24.215 195.181 25.8449C194.832 25.3792 194.366 25.1464 193.901 24.9135C192.504 24.5643 190.991 25.1464 189.827 25.7285C188.896 25.03 187.15 25.3792 186.219 25.8449C185.521 26.1941 183.542 27.3583 184.241 28.4061C182.96 29.1046 182.378 30.9673 183.775 32.9464ZM194.599 30.5016C194.483 30.0359 194.483 29.5703 194.25 29.1046C193.552 27.2419 191.689 25.612 189.827 26.8926C189.245 27.3583 188.663 27.824 188.314 28.4061C187.034 27.3583 185.637 27.3583 184.59 27.9404C184.706 26.8926 185.986 26.3106 186.918 26.0777C188.198 25.7285 189.012 25.7285 190.06 26.5434C190.176 26.6598 190.409 26.427 190.409 26.3106C190.409 26.0777 190.293 25.9613 190.176 25.8449C191.224 25.612 192.388 24.9135 193.435 25.1464C194.134 25.2628 194.715 25.7285 195.065 26.3106V26.427C195.065 26.5434 195.181 26.6598 195.297 26.5434C195.647 27.1255 195.763 27.824 195.763 28.5225C195.297 29.1046 194.832 29.8031 194.599 30.5016ZM202.63 33.5285C202.979 32.2479 202.863 30.9673 202.164 29.5703C203.095 29.9195 204.143 30.3852 204.492 31.5494C204.608 31.8986 204.725 33.412 204.376 33.8777C203.91 33.5285 203.212 33.412 202.63 33.5285ZM198.673 38.7673C198.556 38.7673 198.323 38.7673 198.207 38.7673C199.022 38.6508 199.72 38.418 200.418 37.9523C200.535 37.8359 200.418 37.7195 200.302 37.7195C199.255 38.3016 198.323 38.418 197.16 38.5344C196.927 38.418 196.578 38.418 196.345 38.3016C198.207 38.1852 200.186 37.4867 201.35 36.2061C201.931 35.624 202.281 34.9255 202.513 34.1105C203.212 34.1105 203.677 34.227 204.026 34.4598C204.026 34.4598 204.026 34.5762 204.143 34.5762C204.143 34.5762 204.143 34.5762 204.259 34.5762C205.19 35.5076 203.561 37.7195 202.397 38.1852C201.117 38.6508 199.836 38.8837 198.673 38.7673ZM194.366 37.4867C196.578 37.2538 198.207 35.3911 199.487 33.7613C199.604 33.6449 199.371 33.412 199.255 33.5285C198.091 35.0419 196.578 36.6717 194.599 37.2538C194.832 37.021 195.065 36.7882 195.297 36.6717C195.414 36.5553 195.53 36.5553 195.53 36.4389C195.879 36.0897 195.297 35.624 194.948 35.8568C194.832 35.9732 194.832 35.9732 194.715 36.0897C194.483 36.3225 194.25 36.5553 193.901 36.6717C194.599 34.1106 195.879 29.4538 198.673 29.5703C202.863 29.8031 202.513 35.2747 199.255 36.6717C197.742 37.3703 196.112 37.7195 194.483 37.6031C194.483 37.4867 194.483 37.4867 194.366 37.4867ZM192.039 36.7882C189.594 35.3911 187.616 31.8986 188.431 29.4538C188.663 29.4538 188.896 29.1046 188.663 28.8717C189.012 28.1732 189.594 27.7076 190.526 27.2419C193.552 25.9613 194.017 30.7344 193.901 32.3643C193.784 33.7613 193.552 35.1583 193.319 36.5553C193.086 35.9732 192.853 35.3911 192.504 34.9255C192.388 34.5762 191.922 34.9255 192.039 35.1583C192.271 35.7404 192.504 36.3225 192.737 36.9046C192.737 36.9046 192.737 36.9046 192.62 36.9046C192.504 36.9046 192.504 36.9046 192.388 36.9046C192.271 36.9046 192.155 36.7882 192.039 36.7882ZM184.241 32.015C183.659 30.8509 183.193 28.2897 185.754 28.5225C186.568 28.5225 187.267 28.7553 187.849 29.221C187.383 30.3852 187.383 31.7822 188.081 33.0628C188.78 34.4598 189.944 36.0897 191.457 36.9046V37.021C191.34 37.021 191.34 37.021 191.224 37.1374C189.478 36.0897 188.198 34.3434 187.383 32.4807C187.383 32.3643 187.15 32.4807 187.15 32.5971C187.732 34.4598 189.245 36.4389 191.107 37.3703C191.107 37.4867 191.107 37.6031 191.107 37.6031C190.991 37.6031 190.875 37.4867 190.758 37.4867C190.642 37.4867 190.642 37.4867 190.642 37.4867C189.012 37.021 187.267 35.8568 186.568 35.0419C185.754 34.1106 184.823 33.1792 184.241 32.015Z" fill="#BB9D6C"/>
<path d="M152.351 0H90.6655V61.7015H152.351V0Z" fill="#4C5A5E"/>
<path d="M148.859 3.49268H94.1571V58.2091H148.859V3.49268Z" fill="#ECEDEF"/>
<path d="M137.22 15.1343H105.796V46.5671H137.22V15.1343Z" fill="white"/>
<path d="M122.206 38.4181C123.254 38.1853 124.418 37.836 125.349 37.3704C128.026 36.2062 131.052 34.2271 131.75 31.3166C132.099 29.9196 132.099 28.5226 131.866 27.1256V27.0092C131.634 25.2629 131.052 23.633 130.586 21.8868C130.586 21.6539 130.586 21.3047 130.47 21.0718C130.47 20.9554 130.353 21.0718 130.353 21.0718V21.1883C130.353 21.0719 130.237 20.9554 130.237 20.839C130.237 20.839 130.237 20.7226 130.121 20.7226V20.6062C130.121 20.2569 129.539 20.2569 129.422 20.6062C128.957 22.0032 128.258 23.051 127.327 23.9823C127.327 23.9823 127.327 23.8659 127.211 23.8659V23.9823C126.629 24.5644 125.698 25.0301 124.883 25.3793C124.301 25.6121 122.905 25.845 122.905 25.9614H123.137H123.254C121.974 26.3107 120.693 26.4271 119.297 26.8927C117.551 27.3584 115.689 28.1733 114.641 29.5704C114.525 29.6868 114.292 29.8032 114.176 29.9196C114.292 29.8032 114.292 29.8032 114.408 29.6868C114.176 29.9196 113.943 30.1524 113.826 30.5017C113.71 30.3853 113.477 30.5017 113.477 30.6181C113.128 31.8987 113.128 33.2957 113.594 34.5763C112.081 35.5077 110.917 37.0211 109.637 38.3017C109.404 38.5345 109.637 38.7674 109.869 38.7674C111.033 39.0002 112.197 37.9524 113.012 37.1375C113.477 36.6718 113.826 36.2062 114.176 35.7405C114.641 36.5554 115.456 37.2539 116.387 37.7196C118.016 38.4181 119.762 38.651 121.508 38.4181C121.624 38.5345 121.741 38.5345 121.857 38.651C122.206 38.651 122.323 38.5345 122.206 38.4181ZM116.62 33.2957C117.202 34.3435 117.9 35.5077 118.831 36.3226C119.413 36.7883 119.995 37.2539 120.577 37.7196C119.995 37.7196 119.413 37.7196 118.715 37.6032C118.482 37.6032 118.366 37.4868 118.133 37.4868C117.667 37.0211 117.085 36.6719 116.736 36.0898C116.271 35.3913 115.921 34.8092 115.689 33.9942C115.805 33.8778 115.805 33.8778 115.921 33.7614C116.154 33.5286 116.387 33.4121 116.62 33.2957ZM114.059 34.9256C114.059 34.9256 114.059 35.042 114.059 34.9256C113.826 35.3913 113.594 35.7405 113.245 36.2062C112.663 36.9047 111.848 37.9524 110.917 38.1853C111.964 37.0211 112.895 35.8569 114.059 34.9256ZM115.223 34.4599C115.34 34.2271 115.572 34.1107 115.689 33.8778C116.038 35.042 116.736 36.2062 117.667 37.1375C116.62 36.7883 115.689 36.2062 115.107 35.2748C114.99 35.1584 114.99 35.042 114.874 34.9256C114.99 34.8092 115.107 34.5763 115.223 34.4599ZM114.874 30.3853C114.525 31.433 114.525 32.4808 114.99 33.5286C114.874 33.645 114.641 33.7614 114.525 33.9942C114.292 33.1793 114.292 32.3644 114.292 31.433C114.525 31.0838 114.641 30.7345 114.874 30.3853ZM117.318 28.4062C116.853 29.6868 116.503 31.0838 116.62 32.4808C116.038 32.7136 115.456 33.0629 114.99 33.645C114.525 32.3644 114.758 31.2002 115.223 30.036C115.456 29.8032 115.689 29.4539 116.038 29.2211C116.154 29.1047 116.387 28.9883 116.503 28.8718C116.853 28.639 117.085 28.5226 117.318 28.4062ZM119.413 27.7077C118.948 29.2211 118.366 30.6181 117.667 32.1316C117.434 32.248 117.085 32.248 116.853 32.3644C116.853 31.6659 116.853 30.9674 116.969 30.2689C117.085 29.5704 117.318 28.9883 117.434 28.2898C118.133 28.0569 118.715 27.8241 119.413 27.7077ZM121.624 27.242C121.275 28.8718 120.926 30.3853 119.879 31.6659C119.297 31.7823 118.598 31.8987 118.016 32.0151C118.715 30.7345 119.18 29.2211 119.529 27.7077C120.228 27.4748 120.926 27.3584 121.624 27.242ZM123.37 26.7763C122.905 28.4062 122.905 30.036 121.857 31.3166C121.275 31.433 120.81 31.5495 120.228 31.5495C120.926 31.0838 121.275 30.036 121.392 29.3375C121.624 28.639 121.741 27.8241 121.857 27.1256C122.323 27.1256 122.788 27.0092 123.37 26.7763ZM125.232 26.1942C125.232 27.1256 125.116 28.0569 124.767 28.9883C124.65 29.4539 124.418 29.9196 124.185 30.2689H124.069C123.952 30.2689 123.952 30.3853 123.952 30.5017C123.836 30.5017 123.836 30.6181 123.836 30.7345C123.37 30.9674 122.905 31.0838 122.439 31.2002C122.788 30.6181 123.021 29.9196 123.254 29.3375C123.487 28.5226 123.603 27.5913 123.719 26.7763C123.836 26.7763 123.952 26.7763 123.952 26.6599C124.301 26.5435 124.767 26.4271 125.232 26.1942ZM127.56 24.7972C127.444 25.845 126.862 27.0092 126.396 27.9405C125.931 28.7554 125.349 29.4539 124.767 30.1524C124.65 30.1524 124.534 30.2689 124.418 30.2689C124.65 29.8032 124.767 29.3375 124.883 28.8718C125.116 28.0569 125.232 27.1256 125.232 26.1942C126.163 25.845 126.862 25.3793 127.56 24.7972ZM130.353 22.8181C130.121 24.2151 129.422 25.6121 128.608 26.7763C127.793 27.9405 126.745 29.2211 125.349 29.8032C125.465 29.6868 125.465 29.5704 125.582 29.5704C126.047 28.8718 126.513 28.1733 126.862 27.4748C127.211 26.7763 127.677 25.6121 127.677 24.6808C128.026 24.448 128.375 24.0987 128.724 23.7495C129.19 23.1674 129.888 22.4689 130.121 21.6539C130.237 22.0032 130.353 22.3524 130.353 22.8181ZM128.258 29.6868C127.211 30.1524 125.931 30.5017 124.767 30.6181C124.767 30.6181 124.767 30.6181 124.767 30.5017C124.883 30.3853 124.883 30.3853 125 30.2689C126.629 29.6868 128.026 28.1733 128.84 26.8927C129.539 25.845 130.121 24.5644 130.47 23.2838C130.819 24.6808 131.168 26.1942 131.401 27.5913C130.703 28.7554 129.306 29.3375 128.258 29.6868ZM127.793 31.2002C126.862 31.2002 125.698 31.2002 124.883 30.851C126.164 30.851 127.677 30.3853 128.84 29.9196C129.655 29.5704 130.819 28.9883 131.517 28.1733C131.517 28.7554 131.517 29.2211 131.517 29.8032C131.517 30.2689 131.401 30.6181 131.285 30.9674C130.004 30.9674 128.957 31.2002 127.793 31.2002ZM127.56 35.5077C126.629 35.2748 125.814 34.9256 124.883 34.3435C123.952 33.645 123.137 32.8301 122.556 31.7823C122.788 31.6659 123.021 31.6659 123.37 31.5495H123.487C123.487 31.5495 123.487 31.5495 123.603 31.433C123.603 31.433 123.603 31.433 123.719 31.433C125.349 32.7136 127.677 33.5286 129.655 33.4121C129.771 33.4121 129.771 33.1793 129.655 33.1793C127.56 33.0629 125.582 32.5972 123.836 31.433C124.185 31.3166 124.418 31.2002 124.767 30.9674C125.582 31.433 126.745 31.433 127.56 31.433C128.724 31.433 129.888 31.3166 131.168 31.2002C130.47 32.9465 129.19 34.4599 127.56 35.5077ZM125.349 36.5554C125.349 36.439 125.349 36.439 125.232 36.439C123.952 35.8569 122.788 35.7405 121.857 34.6927C121.159 33.9942 120.693 33.0629 119.995 32.248C120.81 32.1316 121.624 32.0151 122.439 31.7823C122.905 32.8301 123.719 33.7614 124.65 34.4599C125.232 34.9256 126.163 35.5077 126.978 35.7405C126.745 35.8569 126.396 36.0898 126.164 36.2062C126.047 36.3226 125.698 36.439 125.349 36.5554ZM122.905 37.3704C121.159 35.8569 119.646 34.4599 118.482 32.4808C119.064 32.3644 119.646 32.248 120.228 32.1316C120.926 33.0629 121.508 34.1107 122.323 34.9256C123.137 35.7405 124.185 36.0898 125.349 36.5554C124.418 37.0211 123.603 37.2539 122.905 37.3704ZM121.275 37.6032C120.577 37.1375 119.762 36.9047 119.18 36.3226C118.133 35.3913 117.434 34.3435 116.62 33.1793C117.085 32.9465 117.551 32.7136 118.016 32.5972C118.133 32.5972 118.133 32.5972 118.249 32.4808C119.18 34.4599 120.81 35.9733 122.439 37.3704C122.09 37.6032 121.741 37.6032 121.275 37.6032Z" fill="#BB9D6C"/>
<path d="M304.585 189.412C304.585 192.788 301.792 195.582 298.416 195.582C295.041 195.582 292.248 192.788 292.248 189.412V124.683C292.248 121.307 295.041 118.513 298.416 118.513C301.792 118.513 304.585 121.307 304.585 124.683V189.412Z" fill="#607E64"/>
<path d="M325.069 157.397C325.069 160.074 322.858 162.17 320.297 162.17C317.62 162.17 315.525 159.958 315.525 157.397V143.31C315.525 140.633 317.737 138.537 320.297 138.537C322.974 138.537 325.069 140.749 325.069 143.31V157.397Z" fill="#607E64"/>
<path d="M303.537 153.206H319.133C322.159 153.206 324.487 155.65 324.487 158.561C324.487 161.588 322.043 163.916 319.133 163.916H303.421" fill="#607E64"/>
<path d="M274.091 148.2C274.091 150.877 276.303 152.973 278.863 152.973C281.54 152.973 283.635 150.761 283.635 148.2V134.113C283.635 131.435 281.424 129.34 278.863 129.34C276.186 129.34 274.091 131.552 274.091 134.113V148.2Z" fill="#607E64"/>
<path d="M295.041 142.262H279.329C276.303 142.262 273.975 144.707 273.975 147.617C273.975 150.644 276.419 152.973 279.329 152.973H295.041" fill="#607E64"/>
<path d="M302.606 122.355L301.675 122.704L300.744 122.937V122.355V121.773L301.675 122.122L302.606 122.355Z" fill="#B0B070"/>
<path d="M295.157 125.964L294.925 125.033L294.576 124.102H295.157H295.739L295.507 125.033L295.157 125.964Z" fill="#B0B070"/>
<path d="M298.416 133.415L298.184 132.484L297.834 131.552H298.416H298.998L298.765 132.484L298.416 133.415Z" fill="#B0B070"/>
<path d="M298.416 139.003L298.184 138.071L297.834 137.14H298.416H298.998L298.765 138.071L298.416 139.003Z" fill="#B0B070"/>
<path d="M298.416 144.707L298.184 143.776L297.834 142.845H298.416H298.998L298.765 143.776L298.416 144.707Z" fill="#B0B070"/>
<path d="M285.963 147.152L285.032 147.385L284.101 147.734V147.152V146.57L285.032 146.803L285.963 147.152Z" fill="#B0B070"/>
<path d="M291.666 147.152L290.735 147.385L289.804 147.734V147.152V146.57L290.735 146.803L291.666 147.152Z" fill="#B0B070"/>
<path d="M307.96 158.561L307.029 158.91L306.098 159.143V158.677V158.095L307.029 158.328L307.96 158.561Z" fill="#B0B070"/>
<path d="M313.663 158.561L312.732 158.91L311.801 159.143V158.677V158.095L312.732 158.328L313.663 158.561Z" fill="#B0B070"/>
<path d="M320.413 146.686L320.064 145.639L319.715 144.591H320.413H320.995L320.646 145.639L320.413 146.686Z" fill="#B0B070"/>
<path d="M320.413 153.089L320.064 152.041L319.715 150.994H320.413H320.995L320.646 152.041L320.413 153.089Z" fill="#B0B070"/>
<path d="M320.413 159.492L320.064 158.445L319.715 157.397H320.413H320.995L320.646 158.445L320.413 159.492Z" fill="#B0B070"/>
<path d="M278.514 133.648L278.165 132.6L277.932 131.552H278.514H279.212L278.863 132.6L278.514 133.648Z" fill="#B0B070"/>
<path d="M278.514 139.934L278.165 138.886L277.932 137.838H278.514H279.212L278.863 138.886L278.514 139.934Z" fill="#B0B070"/>
<path d="M278.514 146.337L278.165 145.289L277.932 144.242H278.514H279.212L278.863 145.289L278.514 146.337Z" fill="#B0B070"/>
<path d="M298.416 150.412L298.184 149.48L297.834 148.433H298.416H298.998L298.765 149.48L298.416 150.412Z" fill="#B0B070"/>
<path d="M298.416 156L298.184 155.069L297.834 154.137H298.416H298.998L298.765 155.069L298.416 156Z" fill="#B0B070"/>
<path d="M298.416 161.704L298.184 160.773L297.834 159.842H298.416H298.998L298.765 160.773L298.416 161.704Z" fill="#B0B070"/>
<path d="M298.416 167.292L298.184 166.361L297.834 165.43H298.416H298.998L298.765 166.361L298.416 167.292Z" fill="#B0B070"/>
<path d="M298.416 172.997L298.184 172.066L297.834 171.134H298.416H298.998L298.765 172.066L298.416 172.997Z" fill="#B0B070"/>
<path d="M298.416 178.585L298.184 177.654L297.834 176.722H298.416H298.998L298.765 177.654L298.416 178.585Z" fill="#B0B070"/>
<path d="M305.865 129.922L304.934 130.155L304.003 130.505V129.922V129.34L304.934 129.573L305.865 129.922Z" fill="#B0B070"/>
<path d="M305.865 135.627L304.934 135.976L304.003 136.209V135.627V135.044L304.934 135.394L305.865 135.627Z" fill="#B0B070"/>
<path d="M305.865 141.448L304.934 141.681L304.003 142.03V141.448V140.866L304.934 141.215L305.865 141.448Z" fill="#B0B070"/>
<path d="M305.865 147.269L304.934 147.501L304.003 147.734V147.269V146.687L304.934 146.919L305.865 147.269Z" fill="#B0B070"/>
<path d="M305.865 152.973L304.934 153.322L304.003 153.555V152.973V152.391L304.934 152.74L305.865 152.973Z" fill="#B0B070"/>
<path d="M305.865 164.499L304.934 164.848L304.003 165.081V164.499V163.917L304.934 164.266L305.865 164.499Z" fill="#B0B070"/>
<path d="M305.865 170.319L304.934 170.552L304.003 170.901V170.319V169.737L304.934 169.97L305.865 170.319Z" fill="#B0B070"/>
<path d="M305.865 176.023L304.934 176.373L304.003 176.606V176.023V175.441L304.934 175.791L305.865 176.023Z" fill="#B0B070"/>
<path d="M291.549 122.355L292.481 122.704L293.412 122.937V122.355V121.773L292.481 122.122L291.549 122.355Z" fill="#B0B070"/>
<path d="M291.2 129.922L292.131 130.155L293.062 130.505V129.922V129.34L292.131 129.573L291.2 129.922Z" fill="#B0B070"/>
<path d="M291.2 135.627L292.131 135.976L293.062 136.209V135.627V135.044L292.131 135.394L291.2 135.627Z" fill="#B0B070"/>
<path d="M291.2 141.448L292.131 141.681L293.062 142.03V141.448V140.866L292.131 141.215L291.2 141.448Z" fill="#B0B070"/>
<path d="M272.578 134.579L273.509 134.812L274.441 135.161V134.579V133.997L273.509 134.23L272.578 134.579Z" fill="#B0B070"/>
<path d="M272.578 140.283L273.509 140.633L274.441 140.865V140.283V139.701L273.509 140.05L272.578 140.283Z" fill="#B0B070"/>
<path d="M272.578 146.104L273.509 146.337L274.441 146.686V146.104V145.522L273.509 145.755L272.578 146.104Z" fill="#B0B070"/>
<path d="M326 143.31L325.069 143.659L324.138 143.892V143.31V142.728L325.069 143.077L326 143.31Z" fill="#B0B070"/>
<path d="M326 149.131L325.069 149.364L324.138 149.714V149.131V148.549L325.069 148.782L326 149.131Z" fill="#B0B070"/>
<path d="M326 154.836L325.069 155.185L324.138 155.418V154.836V154.253L325.069 154.603L326 154.836Z" fill="#B0B070"/>
<path d="M277.467 154.486L277.699 153.555L278.049 152.624H277.467H276.885L277.234 153.555L277.467 154.486Z" fill="#B0B070"/>
<path d="M283.286 154.486L283.519 153.555L283.868 152.624H283.286H282.704L282.937 153.555L283.286 154.486Z" fill="#B0B070"/>
<path d="M288.989 154.486L289.338 153.555L289.571 152.624H288.989H288.407L288.756 153.555L288.989 154.486Z" fill="#B0B070"/>
<path d="M308.426 165.43L308.658 164.498L309.007 163.567H308.426H307.844L308.076 164.498L308.426 165.43Z" fill="#B0B070"/>
<path d="M314.129 165.43L314.478 164.498L314.71 163.567H314.129H313.547L313.896 164.498L314.129 165.43Z" fill="#B0B070"/>
<path d="M319.715 164.964L319.948 164.032L320.297 163.101H319.715H319.133L319.366 164.032L319.715 164.964Z" fill="#B0B070"/>
<path d="M284.566 133.997L283.635 134.229L282.704 134.579V133.997V133.415L283.635 133.647L284.566 133.997Z" fill="#B0B070"/>
<path d="M284.566 139.701L283.635 140.05L282.704 140.283V139.701V139.119L283.635 139.468L284.566 139.701Z" fill="#B0B070"/>
<path d="M291.2 157.047L292.131 157.397L293.062 157.63V157.047V156.465L292.131 156.815L291.2 157.047Z" fill="#B0B070"/>
<path d="M291.2 164.499L292.131 164.848L293.062 165.081V164.499V163.917L292.131 164.266L291.2 164.499Z" fill="#B0B070"/>
<path d="M291.2 170.319L292.131 170.552L293.062 170.901V170.319V169.737L292.131 169.97L291.2 170.319Z" fill="#B0B070"/>
<path d="M291.2 176.023L292.131 176.373L293.062 176.606V176.023V175.441L292.131 175.791L291.2 176.023Z" fill="#B0B070"/>
<path d="M315.176 143.776L316.107 144.009L317.038 144.358V143.776V143.194L316.107 143.427L315.176 143.776Z" fill="#B0B070"/>
<path d="M313.896 149.131L314.827 149.364L315.758 149.714V149.131V148.549L314.827 148.782L313.896 149.131Z" fill="#B0B070"/>
<path d="M310.404 152.042L310.055 152.973L309.822 153.904H310.404H310.986L310.637 152.973L310.404 152.042Z" fill="#B0B070"/>
<path d="M287.476 141.098L287.243 142.029L286.894 142.961H287.476H288.058L287.709 142.029L287.476 141.098Z" fill="#B0B070"/>
<path fill-rule="evenodd" clip-rule="evenodd" d="M298.3 184.406C297.834 186.501 294.692 186.618 290.618 186.501C286.545 186.385 284.45 184.872 284.683 182.892C284.799 180.913 287.825 180.098 291.899 180.913C295.972 181.612 298.649 182.543 298.3 184.406Z" fill="#C1C6C6"/>
<path fill-rule="evenodd" clip-rule="evenodd" d="M289.92 181.263V181.496C289.455 181.379 289.105 181.379 288.756 181.379C287.243 181.845 288.058 183.824 289.92 183.94V184.29C286.661 184.29 287.36 181.263 288.407 181.146C288.873 181.146 289.338 181.146 289.92 181.263ZM289.92 184.057C290.269 184.057 290.618 184.057 290.968 183.94C292.946 183.475 291.433 181.961 289.92 181.496V181.263C292.364 181.729 294.11 183.94 290.735 184.406C290.502 184.406 290.153 184.406 289.92 184.406V184.057Z" fill="#DCE0F0"/>
<path fill-rule="evenodd" clip-rule="evenodd" d="M291.666 185.454C292.946 185.105 296.67 183.591 296.438 182.078C296.67 182.194 297.02 182.31 297.252 182.427C296.787 183.824 293.179 185.337 291.899 185.687C290.735 186.036 288.407 186.152 286.312 185.454C285.73 185.105 285.265 184.755 285.032 184.29C287.243 185.919 290.269 185.919 291.666 185.454Z" fill="#D3D5D5"/>
<path fill-rule="evenodd" clip-rule="evenodd" d="M284.682 182.31C285.264 180.797 288.057 180.098 291.781 180.797C293.876 181.146 295.738 181.612 296.786 182.194C296.902 182.427 296.902 182.659 296.902 183.009C296.553 184.871 293.643 184.988 290.035 184.871C286.777 184.871 285.031 183.824 284.682 182.31Z" fill="#9EA1A2"/>
<path fill-rule="evenodd" clip-rule="evenodd" d="M293.179 184.988C294.808 184.289 296.67 183.242 296.554 182.194C296.67 182.194 296.787 182.31 296.903 182.31C297.02 182.543 297.02 182.776 297.02 183.125C296.438 183.707 295.507 184.289 294.575 184.755C294.11 184.871 293.644 184.871 293.179 184.988Z" fill="#D3D5D5"/>
<path fill-rule="evenodd" clip-rule="evenodd" d="M321.577 182.426C321.112 184.522 317.969 184.638 313.896 184.522C309.822 184.406 307.727 182.892 307.96 180.913C308.076 178.934 311.102 178.119 315.176 178.934C319.25 179.749 322.043 180.68 321.577 182.426Z" fill="#9FA2A5"/>
<path fill-rule="evenodd" clip-rule="evenodd" d="M313.197 179.283V179.516C312.732 179.399 312.383 179.399 312.034 179.399C310.521 179.865 311.335 181.844 313.197 181.961V182.31C309.939 182.31 310.637 179.283 311.684 179.167C312.15 179.167 312.732 179.283 313.197 179.283ZM313.197 182.193C313.547 182.193 313.896 182.193 314.245 182.077C316.223 181.611 314.71 180.098 313.197 179.632V179.283C315.642 179.749 317.387 181.961 314.012 182.426C313.779 182.426 313.43 182.426 313.197 182.426V182.193Z" fill="#DCE0F0"/>
<path fill-rule="evenodd" clip-rule="evenodd" d="M315.06 183.59C316.34 183.241 320.064 181.728 319.831 180.214C320.064 180.331 320.413 180.447 320.646 180.564C320.181 181.961 316.573 183.474 315.292 183.823C314.128 184.173 311.801 184.289 309.706 183.59C309.124 183.241 308.658 182.892 308.426 182.426C310.521 183.94 313.547 183.94 315.06 183.59Z" fill="#D3D5D5"/>
<path fill-rule="evenodd" clip-rule="evenodd" d="M308.076 180.447C308.658 178.934 311.452 178.235 315.176 178.934C317.271 179.283 319.133 179.749 320.181 180.331C320.297 180.564 320.297 180.797 320.297 181.146C319.948 183.009 317.038 183.125 313.43 183.009C310.171 182.892 308.309 181.844 308.076 180.447Z" fill="#9FA2A5"/>
<path fill-rule="evenodd" clip-rule="evenodd" d="M316.456 183.008C318.086 182.31 319.948 181.262 319.831 180.214C319.948 180.214 320.064 180.331 320.181 180.331C320.297 180.564 320.297 180.796 320.297 181.146C319.715 181.728 318.784 182.31 317.853 182.776C317.387 182.892 316.922 183.008 316.456 183.008Z" fill="#D3D5D5"/>
<path fill-rule="evenodd" clip-rule="evenodd" d="M271.647 183.591C272.113 186.035 275.954 186.268 280.958 186.035C285.846 185.919 288.291 184.056 288.058 181.728C287.825 179.4 284.333 178.352 279.445 179.283C274.441 180.215 271.182 181.379 271.647 183.591Z" fill="#B1B3B4"/>
<path fill-rule="evenodd" clip-rule="evenodd" d="M283.635 179.749C284.799 179.982 285.614 183.591 281.773 183.591V183.125C283.984 183.009 284.915 180.564 283.17 179.982C282.82 179.865 282.238 179.865 281.773 180.098V179.749C282.355 179.633 282.937 179.633 283.635 179.749ZM281.773 183.591C281.54 183.591 281.191 183.591 280.842 183.474C276.768 183.009 278.863 180.331 281.773 179.749V180.098C280.027 180.68 278.165 182.427 280.609 183.009C281.075 183.125 281.424 183.125 281.773 183.125V183.591Z" fill="#DCE0F0"/>
<path fill-rule="evenodd" clip-rule="evenodd" d="M279.562 184.755C277.932 184.289 273.509 182.427 273.742 180.797C273.393 180.913 273.044 181.146 272.811 181.263C273.393 183.009 277.583 184.755 279.212 185.221C280.609 185.686 283.402 185.803 285.963 184.872C286.661 184.522 287.243 184.057 287.476 183.474C284.915 185.337 281.191 185.337 279.562 184.755Z" fill="#D3D5D5"/>
<path fill-rule="evenodd" clip-rule="evenodd" d="M287.941 181.029C287.243 179.167 283.868 178.468 279.445 179.283C276.885 179.749 274.79 180.331 273.393 181.029C273.277 181.262 273.277 181.611 273.277 181.961C273.742 184.173 277.117 184.289 281.54 184.173C285.381 184.056 287.476 182.776 287.941 181.029Z" fill="#B1B3B4"/>
<path fill-rule="evenodd" clip-rule="evenodd" d="M277.699 184.173C275.837 183.358 273.509 182.077 273.742 180.796C273.626 180.913 273.393 180.913 273.277 181.029C273.16 181.262 273.16 181.611 273.16 181.961C273.742 182.659 274.906 183.358 276.186 183.94C276.652 184.056 277.234 184.173 277.699 184.173Z" fill="#D3D5D5"/>
<path fill-rule="evenodd" clip-rule="evenodd" d="M293.994 184.173C294.459 186.618 298.3 186.85 303.305 186.618C308.193 186.501 310.637 184.638 310.404 182.31C310.171 179.982 306.68 178.934 301.792 179.865C296.787 180.913 293.528 181.961 293.994 184.173Z" fill="#C1C6C6"/>
<path fill-rule="evenodd" clip-rule="evenodd" d="M305.981 180.447C307.145 180.68 307.96 184.289 304.119 184.289V183.824C306.331 183.707 307.262 181.262 305.516 180.68C305.167 180.564 304.585 180.564 304.119 180.797V180.447C304.701 180.331 305.283 180.331 305.981 180.447ZM304.003 184.173C303.77 184.173 303.421 184.173 303.072 184.056C298.998 183.591 301.093 180.913 304.003 180.331V180.68C302.257 181.262 300.395 183.009 302.839 183.591C303.305 183.707 303.654 183.707 304.003 183.707V184.173Z" fill="#DCE0F0"/>
<path fill-rule="evenodd" clip-rule="evenodd" d="M301.908 185.453C300.278 184.988 295.856 183.125 296.089 181.495C295.739 181.612 295.39 181.844 295.157 181.961C295.739 183.707 299.929 185.453 301.559 185.919C302.955 186.385 305.749 186.501 308.309 185.57C309.008 185.22 309.589 184.755 309.822 184.173C307.145 186.035 303.537 185.919 301.908 185.453Z" fill="#D3D5D5"/>
<path fill-rule="evenodd" clip-rule="evenodd" d="M310.171 181.728C309.473 179.865 306.098 179.167 301.675 179.982C299.115 180.447 297.02 181.03 295.623 181.728C295.507 181.961 295.507 182.31 295.507 182.659C295.972 184.871 299.347 184.988 303.77 184.871C307.727 184.638 309.822 183.474 310.171 181.728Z" fill="#B1B3B4"/>
<path fill-rule="evenodd" clip-rule="evenodd" d="M300.046 184.871C298.183 184.056 295.856 182.776 296.089 181.495C295.972 181.612 295.739 181.612 295.623 181.728C295.507 181.961 295.507 182.31 295.507 182.659C296.089 183.358 297.252 184.056 298.533 184.638C298.998 184.755 299.464 184.755 300.046 184.871Z" fill="#D3D5D5"/>
<path d="M318.435 229.808L278.514 229.692L271.065 190.459H324.138L318.435 229.808Z" fill="#B6A591"/>
<path d="M325.767 196.629C325.767 198.026 324.72 199.074 323.323 199.074H271.996C270.6 199.074 269.552 198.026 269.552 196.629V185.919C269.552 184.522 270.6 183.474 271.996 183.474H323.323C324.72 183.474 325.767 184.522 325.767 185.919V196.629Z" fill="#A79480"/>
</g>
<g clip-path="url(#clip1)">
<path d="M500.959 237.669C496.027 264.999 482.422 288.426 456.573 298.441C374.942 330.525 305.896 314.907 274.604 280.447C258.789 263.132 261.85 247.345 272.904 233.764C290.42 212.206 328.345 196.758 342.63 191.156C365.929 182.159 375.622 94.5655 437.525 97.621C480.041 99.8279 511.673 178.255 500.959 237.669Z" fill="#FFE6A3"/>
<path d="M335.997 247.175C335.997 247.175 375.452 242.252 395.52 216.619C415.587 190.817 414.567 153.98 428.002 138.362C441.437 122.915 446.369 118.501 446.369 118.501C446.369 118.501 428.002 143.625 425.961 157.375C423.75 171.125 438.036 154.998 454.362 154.319C454.362 154.319 430.383 170.106 423.92 184.366C423.92 184.366 445.859 183.178 460.144 203.039C460.144 203.039 432.764 194.381 424.09 194.551C424.09 194.551 439.226 196.928 443.988 204.567C443.988 204.567 426.641 201.681 422.22 205.416C417.628 209.15 412.866 217.298 412.866 217.298C412.866 217.298 452.831 230.2 457.933 250.231C457.933 250.231 428.342 227.144 409.295 230.709C409.295 230.709 433.954 238.348 435.145 270.601C435.145 270.601 417.968 239.366 405.894 238.348C405.894 238.348 417.628 250.401 417.628 262.623C417.628 262.623 407.594 243.441 403.343 240.385C399.091 237.329 382.425 256.512 385.826 282.145C385.826 282.145 376.813 255.663 386.676 242.422C386.676 242.422 355.725 252.777 356.575 278.75C356.575 278.75 350.963 259.567 363.548 247.684C363.548 248.194 347.562 252.438 335.997 247.175Z" fill="#E2A019"/>
<path d="M500.959 237.669C498.238 267.376 476.47 294.197 450.62 305.741C384.976 335.108 306.066 314.908 274.604 280.447C258.789 263.132 261.85 247.345 272.904 233.765C272.564 244.12 274.434 264.151 290.08 277.731C312.018 296.744 378.853 308.457 426.301 295.555C462.865 285.879 489.055 257.53 500.959 237.669Z" fill="#E2A019"/>
<path fill-rule="evenodd" clip-rule="evenodd" d="M297.393 318.982C297.393 318.982 303.175 306.08 303.175 304.043C303.175 301.836 295.862 303.025 295.862 303.025L286.509 317.284C286.509 317.114 295.012 319.661 297.393 318.982Z" fill="#932121"/>
<path d="M291.951 291.311L293.822 271.28L307.597 274.166L304.196 293.348C304.196 293.348 298.583 302.855 294.672 300.308C290.931 297.762 291.951 291.311 291.951 291.311Z" fill="#FBD6C1"/>
<path fill-rule="evenodd" clip-rule="evenodd" d="M303.515 290.123C303.515 290.123 306.576 304.382 301.475 305.91C296.373 307.438 289.06 313.549 286.509 317.114C286.509 317.114 278.176 317.623 269.503 315.077C268.652 314.907 268.312 313.889 268.822 313.04C271.713 309.475 277.155 306.759 281.237 303.024C285.999 298.781 290.931 290.463 296.543 288.935C302.325 287.746 303.515 290.123 303.515 290.123Z" fill="#E21A1A"/>
<path fill-rule="evenodd" clip-rule="evenodd" d="M292.461 289.783L293.311 281.975L305.216 285.879L304.025 291.99C304.025 291.99 292.801 306.25 285.659 306.419C278.516 306.589 292.461 289.783 292.461 289.783Z" fill="#FBD6C1"/>
<path fill-rule="evenodd" clip-rule="evenodd" d="M263.21 306.929C263.21 306.929 271.373 295.386 271.883 293.349C272.224 291.312 264.911 290.972 264.911 290.972L253.006 303.195C253.006 303.195 260.829 307.269 263.21 306.929Z" fill="#932121"/>
<path d="M263.21 278.75L268.992 259.397L281.917 264.83L274.945 282.993C274.945 282.993 267.632 291.311 264.401 288.086C260.999 285.03 263.21 278.75 263.21 278.75Z" fill="#FBD6C1"/>
<path fill-rule="evenodd" clip-rule="evenodd" d="M274.775 279.938C274.775 279.938 274.945 294.367 269.673 295.046C264.401 295.555 256.068 300.139 252.836 303.194C252.836 303.194 244.673 302.006 236.51 298.102C235.66 297.762 235.66 296.574 236.34 296.065C239.741 293.179 245.694 291.481 250.455 288.595C255.897 285.37 262.36 278.071 268.142 277.731C274.094 277.222 274.775 279.938 274.775 279.938Z" fill="#E21A1A"/>
<path fill-rule="evenodd" clip-rule="evenodd" d="M264.061 277.561L266.271 269.922L277.325 276.034L274.945 281.805C274.945 281.805 261.169 293.688 254.197 292.5C247.054 291.311 264.061 277.561 264.061 277.561Z" fill="#FBD6C1"/>
<path d="M290.25 208.471C280.387 222.221 264.231 254.814 264.401 267.885C264.401 267.885 270.013 277.731 279.366 275.863C279.366 275.863 295.012 238.857 306.406 222.9C307.427 221.542 308.107 220.014 309.808 219.844L375.792 221.033L382.425 221.881L395.52 189.967C395.52 189.967 352.153 177.745 350.453 181.14C350.113 181.989 300.794 194.042 290.25 208.471Z" fill="#404D7C"/>
<path d="M312.359 218.487C303.345 231.049 290.08 272.469 290.25 285.54C290.25 285.54 296.373 288.086 305.726 286.219C305.726 286.219 320.011 251.08 334.127 229.69C334.977 228.502 337.358 226.126 342.8 226.635C350.283 227.314 390.928 228.332 401.812 221.542C412.016 215.092 413.547 192.514 413.547 192.514C413.547 192.514 384.466 182.499 382.595 185.724C382.085 186.403 322.903 203.888 312.359 218.487Z" fill="#4B5486"/>
<path d="M278.346 278.24L281.747 273.317L263.89 262.283L261.68 270.262C261.68 270.262 271.373 279.089 278.346 278.24Z" fill="#606DA2"/>
<path d="M307.767 288.086L308.787 282.145L288.039 279.768L289.4 287.916C289.4 287.916 301.985 291.821 307.767 288.086Z" fill="#606DA2"/>
<path fill-rule="evenodd" clip-rule="evenodd" d="M369.67 42.96C369.67 42.96 371.031 103.223 350.453 105.769C350.453 105.769 374.772 114.597 380.894 99.3186C387.187 84.2104 382.595 49.5804 369.67 42.96Z" fill="#332615"/>
<path fill-rule="evenodd" clip-rule="evenodd" d="M406.064 60.1053C406.064 60.1053 408.615 106.788 394.669 108.655C380.554 110.353 372.731 104.242 366.949 105.26L380.724 83.8709L396.88 57.8984L406.064 60.1053Z" fill="#332615"/>
<path fill-rule="evenodd" clip-rule="evenodd" d="M388.887 106.788C386.847 104.751 388.207 95.2443 388.207 95.2443C388.207 95.2443 372.051 88.6238 374.262 93.7165C375.792 97.6208 375.282 103.223 374.432 105.599C373.752 107.297 368.65 107.467 368.65 107.467C368.65 107.467 364.908 120.028 374.772 121.047C384.636 122.235 401.132 110.862 401.132 110.862C401.132 110.862 399.431 108.994 394.669 108.655C393.309 108.485 390.418 108.315 388.887 106.788Z" fill="#FBD6C1"/>
<path fill-rule="evenodd" clip-rule="evenodd" d="M403.683 63.6704C403.683 63.6704 404.193 98.1307 383.275 101.696C362.017 105.26 354.364 73.8557 355.725 61.6334C357.085 49.411 395.18 34.4726 403.683 63.6704Z" fill="#FBD6C1"/>
<path fill-rule="evenodd" clip-rule="evenodd" d="M364.228 110.013C364.228 110.013 350.453 128.007 349.433 139.551C348.582 151.094 345.181 170.785 343.82 173.502C342.46 176.218 318.821 185.384 318.821 185.384L326.134 195.57C326.134 195.57 354.024 185.894 354.704 181.82C355.725 177.915 367.289 117.482 364.228 110.013Z" fill="#FBD6C1"/>
<path fill-rule="evenodd" clip-rule="evenodd" d="M363.378 107.806C363.378 107.806 356.745 107.976 352.664 114.596C348.582 121.047 346.201 136.495 344.331 140.06C344.331 140.06 359.296 143.624 363.208 143.115C367.289 142.776 365.418 111.88 363.378 107.806Z" fill="#7C7CCC"/>
<path fill-rule="evenodd" clip-rule="evenodd" d="M416.948 192.005C381.234 206.094 347.902 195.909 347.902 195.909C347.902 195.909 358.106 164.165 358.956 153.47C359.126 152.282 358.956 151.094 358.786 149.905C358.276 147.529 357.255 145.322 356.065 142.776V142.606C354.534 139.041 353.174 135.137 353.174 130.044C353.174 121.896 357.255 114.427 362.017 109.334C362.527 108.825 362.868 108.315 363.378 107.976C366.099 107.467 368.99 107.297 368.99 107.297C368.99 107.297 366.099 112.39 372.391 117.312C383.785 125.97 394.669 108.655 394.669 108.655L403.003 110.183C394.159 119.689 406.234 135.476 406.234 135.476C404.533 170.955 416.948 192.005 416.948 192.005Z" fill="#8F8FDA"/>
<path d="M391.268 147.359C391.268 147.359 373.411 152.791 358.786 149.736C358.276 147.359 357.255 145.152 356.065 142.606C356.745 143.285 362.697 148.547 391.268 147.359Z" fill="#7C7CCC"/>
<path d="M378.513 91.5097C373.411 91.5097 370.01 88.9634 370.01 88.9634C369.67 88.6239 369.67 88.2843 369.84 87.9448C370.18 87.6053 370.52 87.6053 370.86 87.7751C371.201 87.9448 377.493 92.698 385.656 87.9448C385.996 87.7751 386.506 87.7751 386.676 88.2843C386.846 88.6239 386.846 89.1331 386.336 89.3029C383.615 90.8307 380.894 91.5097 378.513 91.5097Z" fill="#F6AE94"/>
<path d="M393.479 63.3306C392.459 63.3306 391.778 63.3306 391.098 63.3306C390.418 63.3306 389.738 63.3306 389.227 63.1608C388.547 63.1608 388.037 62.991 387.357 62.8213C386.676 62.6515 385.996 62.4818 384.976 62.1423C385.996 60.4447 387.867 59.7657 389.568 59.9355C390.418 60.1052 391.268 60.4447 391.948 60.954C392.629 61.633 393.309 62.312 393.479 63.3306Z" fill="#685656"/>
<path d="M361.677 63.5004C361.847 62.4818 362.357 61.8028 363.038 61.1238C363.718 60.6145 364.568 60.1053 365.418 59.9355C367.119 59.596 369.16 60.1053 370.35 61.633C369.5 62.1423 368.65 62.3121 367.969 62.4818C367.289 62.6516 366.609 62.8213 366.099 62.9911C365.418 63.1608 364.908 63.1608 364.058 63.3306C363.378 63.3306 362.697 63.5004 361.677 63.5004Z" fill="#685656"/>
<path d="M375.962 83.0225C375.112 83.0225 374.092 82.8527 373.241 82.3434C372.731 82.0039 372.391 81.3249 372.391 80.6459C372.221 77.081 375.622 75.3835 375.792 75.3835C376.132 75.2137 376.643 75.3835 376.813 75.723C376.983 76.0625 376.813 76.5718 376.473 76.7415C376.473 76.7415 373.752 78.0996 373.922 80.6459C373.922 80.8156 373.922 80.9854 374.092 81.1552C374.772 81.6644 376.303 81.4947 376.983 81.4947C377.323 81.4947 377.833 81.6644 377.833 82.1737C377.833 82.5132 377.663 83.0225 377.153 83.0225C377.153 83.0225 376.643 83.0225 375.962 83.0225Z" fill="#F6AE94"/>
<path fill-rule="evenodd" clip-rule="evenodd" d="M375.112 44.9972C375.112 44.9972 355.045 60.6146 351.133 71.1394C351.133 71.1394 343.31 52.9757 357.766 42.9601C368.82 35.4909 375.112 44.9972 375.112 44.9972Z" fill="#493B26"/>
<path fill-rule="evenodd" clip-rule="evenodd" d="M364.228 47.883C364.228 47.883 373.241 59.7658 398.751 64.519C398.751 64.519 394.669 61.1239 394.159 57.2195C394.159 57.2195 406.574 57.559 403.003 79.2877C399.261 101.016 389.057 110.353 389.057 110.353C389.057 110.353 408.445 110.013 413.376 102.035C418.478 94.0563 426.982 47.3737 395.18 37.6977C375.452 31.247 364.228 47.883 364.228 47.883Z" fill="#493B26"/>
<path fill-rule="evenodd" clip-rule="evenodd" d="M399.431 72.8369C399.431 72.8369 409.295 68.593 407.084 78.4388C405.554 85.0592 400.282 84.3802 397.561 79.7968C394.839 75.2134 399.431 72.8369 399.431 72.8369Z" fill="#FBD6C1"/>
<path fill-rule="evenodd" clip-rule="evenodd" d="M401.982 110.522C401.982 110.522 411.846 113.578 414.907 121.387C418.648 131.063 420.179 172.823 415.587 181.82C411.676 189.458 374.602 193.702 374.602 193.702L377.153 186.403C377.153 186.403 400.282 178.934 402.492 175.369C405.213 166.372 400.622 136.155 397.39 132.081C394.329 128.007 394.499 111.032 401.982 110.522Z" fill="#FBD6C1"/>
<path fill-rule="evenodd" clip-rule="evenodd" d="M401.982 110.522C401.982 110.522 417.798 111.371 421.88 137.513C421.88 137.513 410.485 138.702 399.091 143.455C393.309 141.248 388.207 111.88 401.982 110.522Z" fill="#7C7CCC"/>
<path d="M353.854 193.872C354.704 195.909 357.596 195.06 359.126 194.551C361.167 193.872 362.697 193.023 364.568 192.005C366.099 191.156 366.949 190.986 368.82 191.156C370.01 191.326 372.221 193.023 373.411 193.363C375.622 193.872 378.173 193.532 378.854 190.307C380.044 184.705 371.031 183.177 366.609 183.687C363.378 183.687 360.827 185.384 358.276 187.251C356.575 188.779 352.834 191.495 353.854 193.872Z" fill="#FBD6C1"/>
<path d="M367.119 199.474L396.37 201.171L368.48 208.98L367.119 199.474Z" fill="white"/>
<path d="M396.37 201.171L396.2 203.039L368.14 211.526L368.48 208.98L396.37 201.171Z" fill="#BA1C1C"/>
<path d="M308.107 205.415L368.48 208.98L368.139 211.526L307.937 207.622L308.107 205.415Z" fill="#B51C1C"/>
<path d="M308.107 205.416L368.48 208.98L362.017 160.091C361.847 158.903 360.997 158.054 359.806 158.054L304.366 154.659C302.835 154.489 301.645 155.847 301.815 157.375L308.107 205.416Z" fill="#E21313"/>
<path d="M370.18 72.1578C370.01 74.0251 368.65 75.5529 366.949 75.3832C365.248 75.2134 364.058 73.6856 364.228 71.8183C364.398 69.951 365.759 68.4232 367.459 68.593C368.99 68.593 370.18 70.2905 370.18 72.1578Z" fill="#1C1A21"/>
<path d="M389.908 72.6671C389.738 74.5344 388.377 76.0622 386.676 75.8925C384.976 75.7227 383.785 74.1949 383.955 72.3276C384.125 70.4603 385.486 68.9325 387.187 69.1023C388.717 69.1023 390.078 70.7998 389.908 72.6671Z" fill="#1C1A21"/>
<path d="M374.942 70.63L374.432 67.5744C375.792 67.2349 378.513 67.0652 379.874 67.7442L378.343 70.4602C377.663 70.2905 376.133 70.2905 374.942 70.63Z" fill="#373737"/>
<path opacity="0.36" d="M367.799 79.2874H362.357C358.276 79.2874 355.045 76.0621 355.045 71.9879C355.045 67.9138 358.276 64.6885 362.357 64.6885H367.799C371.881 64.6885 375.112 67.9138 375.112 71.9879C375.112 75.8923 371.881 79.2874 367.799 79.2874Z" fill="#78EAF5"/>
<path opacity="0.36" d="M391.098 79.2874H385.656C381.575 79.2874 378.343 76.0621 378.343 71.9879C378.343 67.9138 381.575 64.6885 385.656 64.6885H391.098C395.18 64.6885 398.411 67.9138 398.411 71.9879C398.411 75.8923 395.18 79.2874 391.098 79.2874Z" fill="#78EAF5"/>
<path d="M367.799 79.9664H362.357C357.936 79.9664 354.194 76.2318 354.194 71.8182C354.194 67.4045 357.936 63.6699 362.357 63.6699H367.799C372.221 63.6699 375.962 67.4045 375.962 71.8182C375.962 76.4015 372.221 79.9664 367.799 79.9664ZM362.357 65.3675C358.786 65.3675 355.725 68.2533 355.725 71.9879C355.725 75.5528 358.616 78.6084 362.357 78.6084H367.799C371.371 78.6084 374.432 75.7225 374.432 71.9879C374.432 68.4231 371.541 65.3675 367.799 65.3675H362.357Z" fill="#373737"/>
<path d="M391.098 79.9664H385.656C381.234 79.9664 377.493 76.2318 377.493 71.8182C377.493 67.4045 381.234 63.6699 385.656 63.6699H391.098C395.52 63.6699 399.261 67.4045 399.261 71.8182C399.261 76.4015 395.52 79.9664 391.098 79.9664ZM385.656 65.3675C382.085 65.3675 379.024 68.2533 379.024 71.9879C379.024 75.5528 381.915 78.6084 385.656 78.6084H391.098C394.669 78.6084 397.731 75.7225 397.731 71.9879C397.731 68.4231 394.839 65.3675 391.098 65.3675H385.656Z" fill="#373737"/>
<path d="M408.901 66.7364L398.227 71.1782L398.816 72.5884L409.49 68.1465L408.901 66.7364Z" fill="#373737"/>
</g>
<defs>
<clipPath id="clip0">
<rect width="326" height="234" fill="white"/>
</clipPath>
<clipPath id="clip1">
<rect x="236" y="36" width="267" height="284" fill="white"/>
</clipPath>
</defs>
</svg>
