<svg width="133" height="185" viewBox="0 0 133 185" fill="none" xmlns="http://www.w3.org/2000/svg">
<g clip-path="url(#clip0)">
<path d="M40.5531 169.884H33.644V179.134H40.5531V169.884Z" fill="#F9D1BA"/>
<path d="M52.3439 180.713C48.664 180.638 42.9565 180.112 38.3755 179.736H38.2253C36.1976 179.51 34.3952 179.36 33.1186 179.209L33.0435 175.9C33.0435 175.374 33.419 174.923 33.9446 174.923C38.1502 174.848 40.7035 173.945 40.7035 173.945C40.7035 173.945 47.3122 177.48 49.9407 178.382C51.2925 178.683 52.1186 180.187 52.3439 180.713Z" fill="#F86C66"/>
<path d="M38.3006 179.736H38.4508C42.9567 180.187 48.7393 180.638 52.4191 180.713C52.5693 181.089 52.5693 181.465 52.4942 181.691C52.4942 181.766 52.4191 181.841 52.2689 181.917C47.9883 182.217 39.2769 181.691 35.2966 181.465C34.5456 181.465 33.9448 181.39 33.5693 181.39C33.344 181.39 33.1938 181.165 33.1938 180.939V179.209C34.3954 179.36 36.1978 179.51 38.3006 179.736Z" fill="#E64D4A"/>
<path d="M43.1819 175.148C43.1819 175.148 40.8538 174.847 40.3281 174.396C39.8775 173.945 41.4546 172.892 42.2056 172.892C42.9566 172.892 43.6324 173.419 43.1819 175.148Z" fill="#E64D4A"/>
<path d="M43.0318 177.329C42.9567 177.329 42.8816 177.329 42.8065 177.179C42.6563 177.029 42.6563 176.803 42.8065 176.728C43.4073 176.201 43.933 175.073 43.933 175.073C44.0081 174.923 44.2334 174.848 44.3836 174.923C44.5338 174.998 44.6089 175.224 44.5338 175.374C44.5338 175.449 44.0081 176.652 43.2571 177.254C43.182 177.254 43.1069 177.329 43.0318 177.329Z" fill="#E64D4A"/>
<path d="M44.6085 178.081C44.5334 178.081 44.4583 178.081 44.3832 178.006C44.233 177.856 44.233 177.63 44.3832 177.555C44.9839 177.028 45.5096 175.9 45.5096 175.9C45.5847 175.75 45.81 175.675 45.9602 175.75C46.1104 175.825 46.1855 176.051 46.1104 176.201C46.1104 176.276 45.5847 177.48 44.8338 178.081C44.7587 178.081 44.6836 178.081 44.6085 178.081Z" fill="#E64D4A"/>
<path d="M46.0357 178.908C45.9606 178.908 45.8855 178.908 45.8104 178.758C45.6602 178.608 45.6602 178.382 45.8104 178.307C46.4112 177.78 46.9369 176.652 46.9369 176.652C47.012 176.502 47.2373 176.427 47.3875 176.502C47.5377 176.577 47.6128 176.803 47.5377 176.953C47.5377 177.028 47.012 178.232 46.261 178.833C46.1859 178.833 46.1108 178.908 46.0357 178.908Z" fill="#E64D4A"/>
<path d="M36.7229 93.0262C34.545 102.126 36.2723 108.668 36.2723 108.668C36.2723 108.668 41.379 109.12 42.0549 108.593C42.7308 108.142 44.6834 97.6136 44.9087 92.951C44.9087 91.3717 37.8494 88.2884 36.7229 93.0262Z" fill="#F57D2B"/>
<path d="M19.6756 170.786H13.0669V179.134H19.6756V170.786Z" fill="#F9D1BA"/>
<path d="M42.0551 135.742C42.2804 148.451 42.4306 164.244 41.5294 169.959C41.5294 169.959 36.648 171.388 32.7429 169.959L31.2409 143.337L28.6124 121.152H23.3555L19.6006 106.412C19.6006 106.412 39.0512 103.705 39.5769 105.209C39.7271 105.585 41.8298 122.055 42.0551 135.742Z" fill="#4B5486"/>
<path d="M11.7905 106.262C11.7905 106.262 10.9644 151.61 11.7905 171.614C11.7905 171.614 14.3438 173.719 21.328 172.742C21.328 172.742 26.3597 122.28 26.6601 119.498C26.9604 116.715 23.1304 106.488 20.3518 106.112C17.6482 105.811 14.3438 101.299 11.7905 106.262Z" fill="#4B5486"/>
<path d="M35.4464 64.5242C44.0077 68.5099 45.4346 92.0485 44.8338 93.4774C44.3832 94.5302 32.5927 93.8534 32.2172 91.9733C31.8417 90.0181 28.9879 61.516 35.4464 64.5242Z" fill="#8D8DDB"/>
<path d="M21.7036 62.4186C21.7036 62.4186 16.2214 63.0955 11.1147 67.6077C11.1147 67.6077 15.921 69.939 12.2411 78.5873L10.2886 107.541C10.2886 107.541 24.7826 111.15 41.0791 106.864C41.0791 106.864 41.8301 72.7215 38.6759 67.7581C35.0712 62.4186 29.0633 61.5914 21.7036 62.4186Z" fill="#FF1F36"/>
<path d="M9.83789 110.022C9.83789 110.022 15.3952 110.248 23.1304 110.323C23.7312 106.864 24.4822 74.6014 23.6561 68.8859C23.2055 66.705 22.5296 64.5993 21.5533 62.4937C20.7272 62.6441 15.7707 63.5465 11.0395 67.6827C11.0395 67.6827 15.8458 70.014 12.166 78.6624L9.83789 110.022Z" fill="#ADADEC"/>
<path d="M38.6005 67.8332C37.3238 65.8027 35.6717 64.4491 33.7191 63.5466C31.3159 70.9918 30.8653 102.502 32.9681 109.797C35.2962 109.496 39.6519 109.27 42.0551 108.593C42.0551 108.593 41.8298 72.7214 38.6005 67.8332Z" fill="#ADADEC"/>
<path d="M24.4071 58.6584L23.1304 62.3434C23.1304 62.3434 24.4071 66.4044 27.1857 66.4044C29.9644 66.4044 30.4901 63.1706 30.4901 63.1706V58.6584H24.4071Z" fill="#F9D1BA"/>
<path d="M36.7982 47.002C36.7982 54.7479 34.1697 60.9898 26.2843 60.9898C20.5017 60.9898 15.7705 54.7479 15.7705 47.002C15.7705 39.256 20.5017 33.0142 26.2843 33.0142C32.0669 33.0894 36.7982 39.3312 36.7982 47.002Z" fill="#F9D1BA"/>
<path d="M33.4937 36.6239C33.4937 36.6239 36.1972 40.6096 36.798 47.0019C36.798 47.0019 39.8019 41.1361 35.7466 33.5405L33.4937 36.6239Z" fill="#574747"/>
<path d="M36.5729 50.762C36.5729 50.762 35.4464 53.3941 34.0195 52.642C31.4662 51.2884 29.2883 51.3636 29.2883 51.3636C29.2883 51.3636 29.8891 52.266 27.561 52.1156C27.561 52.1156 25.0828 51.3636 22.6796 53.3941C20.1262 55.4998 16.146 50.762 16.146 50.762C16.146 50.762 17.9484 61.5912 27.2606 61.0648C36.0472 60.4632 36.5729 50.762 36.5729 50.762Z" fill="#685656"/>
<path d="M14.3438 49.4836C14.3438 49.4836 14.9445 52.943 18.0987 55.8759C18.0987 55.8759 16.3714 51.6645 16.1461 50.7621C16.1461 50.7621 15.0196 50.6117 14.3438 49.4836Z" fill="#685656"/>
<path d="M31.3162 47.7537C31.3913 48.5057 31.9921 49.1826 32.668 49.1073C33.3439 49.0321 33.8696 48.3553 33.7945 47.6033C33.7194 46.8512 33.1186 46.1744 32.4427 46.2496C31.7668 46.3248 31.2411 47.0017 31.3162 47.7537Z" fill="#1C1A21"/>
<path d="M23.0552 47.9795C23.1303 48.8068 23.7311 49.4084 24.407 49.3332C25.0828 49.258 25.6085 48.5811 25.5334 47.8291C25.4583 47.0771 24.8575 46.4003 24.1817 46.4755C23.5809 46.5507 23.0552 47.2275 23.0552 47.9795Z" fill="#1C1A21"/>
<path d="M28.3871 56.8535C27.0353 56.8535 25.1578 56.4775 23.5057 54.5222C23.3555 54.3718 23.4306 54.1462 23.5057 54.071C23.6559 53.9206 23.8812 53.9958 23.9563 54.071C26.5096 57.0039 29.6638 56.0263 29.814 55.951C29.9642 55.8758 30.1895 55.951 30.2646 56.1767C30.3397 56.3271 30.2646 56.5527 30.0393 56.6279C30.0393 56.6279 29.3634 56.8535 28.3871 56.8535Z" fill="#F6AE94"/>
<path d="M20.8774 42.264C20.9525 41.8128 21.1778 41.5119 21.4782 41.2863C21.7786 41.0607 22.079 40.9103 22.4545 40.8351C23.2055 40.7599 23.9565 40.9855 24.4071 41.6623C24.0316 41.8128 23.7312 41.888 23.4308 41.9632C23.1304 42.0384 22.9051 42.1136 22.6798 42.1136C22.4545 42.1136 22.1541 42.1888 21.9288 42.1888C21.6284 42.264 21.328 42.264 20.8774 42.264Z" fill="#574747"/>
<path d="M33.3437 42.4897C32.8931 42.4897 32.5927 42.4897 32.3674 42.4897C32.067 42.4897 31.8417 42.4145 31.6164 42.4145C31.3911 42.4145 31.0907 42.3393 30.8654 42.2641C30.565 42.1889 30.2647 42.1137 29.8892 41.9633C30.2647 41.2112 31.0907 40.9856 31.8417 41.136C32.2172 41.2112 32.5927 41.3616 32.818 41.5872C33.0433 41.7377 33.3437 42.0385 33.3437 42.4897Z" fill="#574747"/>
<path d="M28.0117 52.4163C27.7864 52.4163 27.5611 52.4163 27.5611 52.4163C27.3358 52.4163 27.2607 52.1907 27.2607 52.0403C27.2607 51.8147 27.486 51.7395 27.6362 51.7395C27.9366 51.7395 28.5374 51.8147 28.8378 51.5891C28.9129 51.5139 28.9129 51.4387 28.9129 51.3635C28.9129 50.3106 27.7864 49.7842 27.7864 49.7842C27.6362 49.709 27.5611 49.4834 27.6362 49.333C27.7113 49.1826 27.9366 49.1074 28.0868 49.1826C28.1619 49.1826 29.5888 49.8594 29.5888 51.3635C29.5888 51.6643 29.5137 51.8899 29.2884 52.1155C28.9129 52.3411 28.3872 52.4163 28.0117 52.4163Z" fill="#F6AE94"/>
<path d="M14.7192 65.6523C5.48203 65.6523 -0.600977 92.1239 -0.000186618 94.2296C0.375307 95.3576 7.2844 95.8088 8.18558 94.0792C9.16187 92.4247 21.9287 65.6523 14.7192 65.6523Z" fill="#8D8DDB"/>
<path d="M23.6559 68.8862L21.7033 62.4187C21.7033 62.4187 19.8259 62.4939 19.5255 62.9451C18.7745 65.0508 20.1263 70.4654 20.1263 70.4654C20.1263 70.4654 22.5294 69.7886 23.6559 68.8862Z" fill="#8D8DDB"/>
<path d="M32.7427 68.7357L33.0431 63.2458C33.0431 63.2458 34.6201 63.7723 34.9205 64.1483C36.2723 66.3292 36.798 69.4125 36.798 69.4125C36.798 69.4125 34.1696 70.5406 32.7427 68.7357Z" fill="#8D8DDB"/>
<path d="M16.1459 33.6157C20.9522 29.7051 25.1577 29.7803 28.387 29.6299C31.2407 29.4795 34.0194 29.7051 35.5214 30.758C36.9482 31.8108 37.4739 34.3677 36.7229 35.947C36.1973 37.1503 34.47 38.0527 31.9166 38.2783C29.138 38.5039 23.6557 37.8271 20.6518 38.2783C17.6478 38.7295 16.6716 45.8738 16.6716 45.8738C15.7704 44.3698 13.4423 45.197 13.4423 45.197C13.4423 45.197 11.3395 37.5263 16.1459 33.6157Z" fill="#685656"/>
<path d="M17.1222 45.197C17.1222 45.197 14.1934 43.6177 13.3673 45.197C12.5412 46.7763 14.5689 51.6645 17.1222 50.6117C19.6005 49.5588 17.1222 45.197 17.1222 45.197Z" fill="#F9D1BA"/>
<path d="M1.80217 96.5608C9.38715 107.841 16.897 114.835 16.897 114.835L20.2765 112.128C20.2765 112.128 12.4662 99.7193 9.68755 94.3047C9.08676 93.1766 0.976085 95.2823 1.80217 96.5608Z" fill="#F9D1BA"/>
<path d="M0.675492 95.5078C6.383 105.961 14.1933 111.752 14.1933 111.752C14.1933 111.752 18.4739 110.323 18.6241 109.42C18.7743 108.518 11.1142 94.7558 7.43438 90.018C6.08261 88.3635 -2.25336 90.1684 0.675492 95.5078Z" fill="#8D8DDB"/>
<path d="M13.668 112.353L18.9249 109.947C19.1502 109.872 19.2253 109.646 19.2253 109.421L19.0751 107.691C19.0751 107.39 18.6997 107.164 18.3993 107.24L12.2412 109.421C11.9408 109.496 11.7906 109.872 11.9408 110.173L12.9921 112.128C13.1423 112.353 13.4427 112.429 13.668 112.353Z" fill="#8080CF"/>
<path d="M15.6953 175.975C15.6953 175.975 13.5174 174.922 14.2684 174.471C14.9443 174.02 18.3988 173.87 18.6992 174.471C18.9996 175.073 17.2723 175.9 15.6953 175.975Z" fill="#E64D4A"/>
<path d="M21.553 180.187H11.1143C11.1143 180.187 11.7901 178.006 11.9403 177.254C12.0905 176.427 12.7664 175.675 13.7427 175.675H19.3C20.2763 175.675 21.0273 176.351 21.1024 177.254C21.1775 178.006 21.553 180.187 21.553 180.187Z" fill="#E64D4A"/>
<path d="M10.9644 179.66H21.7786C21.1027 177.028 19.6007 174.998 16.1462 174.998C13.0671 174.998 11.5651 177.78 10.9644 179.66Z" fill="#F86C66"/>
<path d="M14.4189 176.652C14.3438 176.652 14.1936 176.577 14.1185 176.502C13.9683 176.351 14.0434 176.126 14.1936 176.051C15.996 174.622 18.3991 175.9 18.4742 175.9C18.6244 175.975 18.6995 176.201 18.6244 176.351C18.5493 176.502 18.324 176.577 18.1738 176.502C18.1738 176.502 15.996 175.449 14.5691 176.577C14.5691 176.577 14.494 176.652 14.4189 176.652Z" fill="#E64D4A"/>
<path d="M11.4898 181.39H21.2526C21.7032 181.39 22.0036 181.014 21.9285 180.638C21.8534 180.262 21.8534 179.886 21.7783 179.66H10.9641C10.889 179.961 10.8139 180.337 10.7388 180.638C10.7388 181.014 11.0392 181.39 11.4898 181.39Z" fill="#E64D4A"/>
<path d="M21.628 110.323C21.628 110.323 18.0233 114.008 14.1182 115.286C14.1182 115.286 14.4186 120.701 16.9719 121.904C19.4502 123.032 22.5292 119.272 21.628 110.323Z" fill="#3E4979"/>
<path d="M10.3634 168.38L11.2646 171.99C11.3397 172.366 11.7152 172.667 12.0907 172.667L21.7034 173.494C22.154 173.569 22.6046 173.193 22.6797 172.742L23.2053 169.433C23.2804 168.906 22.905 168.455 22.3793 168.38L11.2646 167.252C10.7389 167.177 10.2133 167.778 10.3634 168.38Z" fill="#3E4979"/>
<path d="M30.415 168.681L30.7905 171.463C30.8656 172.14 31.4664 172.591 32.0672 172.591H41.0791C41.6799 172.591 42.2055 172.215 42.3557 171.614L43.1067 169.132C43.332 168.305 42.7312 167.478 41.9051 167.402L31.7668 167.102C30.9407 167.177 30.3399 167.854 30.415 168.681Z" fill="#3E4979"/>
<path d="M47.0114 109.345C46.8612 108.443 45.4343 108.518 44.7585 108.368C43.4818 108.142 42.2802 108.142 41.0786 108.443C40.9284 108.518 40.8533 108.669 40.8533 108.744C40.7782 108.819 40.7031 108.894 40.7031 109.045C40.7782 109.872 41.2288 110.624 42.0549 110.774C42.5055 110.85 42.881 110.699 43.1063 110.474C43.632 111 44.5332 110.925 44.9087 110.323C45.134 110.549 45.4343 110.699 45.8098 110.624C46.4857 110.549 47.0865 109.947 47.0114 109.345Z" fill="#F9D1BA"/>
<path d="M33.1183 104.607L20.2764 105.435L32.5926 108.894L33.1183 104.607Z" fill="white"/>
<path d="M20.2764 105.435L20.3515 106.187L32.6677 110.022L32.5926 108.894L20.2764 105.435Z" fill="#A51B1B"/>
<path d="M59.1777 107.24L32.5928 108.894L32.6679 110.022L59.3279 108.217L59.1777 107.24Z" fill="#6D2121"/>
<path d="M59.1777 107.24L32.5176 108.819L35.3713 87.1604C35.4464 86.634 35.8219 86.258 36.3476 86.258L60.8298 84.7539C61.5057 84.6787 62.0314 85.2804 61.9563 85.9572L59.1777 107.24Z" fill="#FF1F36"/>
<path d="M99.5738 182.202H106.483V172.952H99.5738V182.202Z" fill="#F9D1BA"/>
<path d="M87.791 183.722C91.4709 183.646 97.1784 183.12 101.759 182.744H101.91C103.937 182.518 105.74 182.368 107.016 182.218L107.091 178.909C107.091 178.382 106.716 177.931 106.19 177.931C101.985 177.856 99.4313 176.953 99.4313 176.953C99.4313 176.953 92.8226 180.488 90.1942 181.39C88.8424 181.766 88.0163 183.195 87.791 183.722Z" fill="#F86C66"/>
<path d="M101.834 182.744H101.684C97.1782 183.195 91.3956 183.646 87.7157 183.722C87.5655 184.098 87.5655 184.474 87.6406 184.699C87.6406 184.774 87.7157 184.85 87.8659 184.925C92.1466 185.226 100.783 184.699 104.838 184.474C105.589 184.474 106.19 184.398 106.566 184.398C106.791 184.398 106.941 184.173 106.941 183.947V182.218C105.739 182.368 103.937 182.518 101.834 182.744Z" fill="#E64D4A"/>
<path d="M96.8776 178.156C96.8776 178.156 99.2056 177.856 99.7313 177.404C100.182 176.953 98.6048 175.9 97.8539 175.9C97.178 175.9 96.5021 176.502 96.8776 178.156Z" fill="#E64D4A"/>
<path d="M97.1032 180.338C97.1783 180.338 97.2534 180.338 97.3285 180.187C97.4787 180.037 97.4787 179.811 97.3285 179.736C96.7277 179.21 96.202 178.082 96.202 178.082C96.1269 177.931 95.9016 177.856 95.7514 177.931C95.6012 178.006 95.5261 178.232 95.6012 178.382C95.6012 178.458 96.1269 179.661 96.8779 180.262C96.953 180.262 97.0281 180.338 97.1032 180.338Z" fill="#E64D4A"/>
<path d="M95.5261 181.165C95.6012 181.165 95.6763 181.09 95.7514 181.014C95.9016 180.864 95.9016 180.638 95.7514 180.563C95.1506 180.037 94.6249 178.909 94.6249 178.909C94.5498 178.758 94.3245 178.683 94.1743 178.758C94.0241 178.833 93.949 179.059 94.0241 179.209C94.0241 179.285 94.5498 180.488 95.3008 181.09C95.3759 181.09 95.451 181.165 95.5261 181.165Z" fill="#E64D4A"/>
<path d="M94.0993 181.917C94.1744 181.917 94.2495 181.917 94.3246 181.766C94.4748 181.616 94.4748 181.39 94.3246 181.315C93.7238 180.789 93.1981 179.661 93.1981 179.661C93.123 179.51 92.8977 179.435 92.7475 179.51C92.5973 179.585 92.5222 179.811 92.5973 179.961C92.5973 180.037 93.123 181.24 93.874 181.842C93.874 181.917 94.0242 181.917 94.0993 181.917Z" fill="#E64D4A"/>
<path d="M119.558 172.968H112.648V182.218H119.558V172.968Z" fill="#F9D1BA"/>
<path d="M131.273 183.722C127.593 183.646 121.886 183.12 117.305 182.744H117.154C115.127 182.518 113.324 182.368 112.048 182.218L111.973 178.909C111.973 178.382 112.348 177.931 112.874 177.931C117.079 177.856 119.633 176.953 119.633 176.953C119.633 176.953 126.241 180.488 128.87 181.39C130.222 181.766 131.123 183.195 131.273 183.722Z" fill="#F86C66"/>
<path d="M117.23 182.744H117.38C121.886 183.195 127.669 183.646 131.348 183.722C131.499 184.098 131.499 184.474 131.423 184.699C131.423 184.774 131.348 184.85 131.198 184.925C126.918 185.226 118.206 184.699 114.226 184.474C113.475 184.474 112.874 184.398 112.499 184.398C112.273 184.398 112.123 184.173 112.123 183.947V182.218C113.4 182.368 115.202 182.518 117.23 182.744Z" fill="#E64D4A"/>
<path d="M122.186 178.156C122.186 178.156 119.858 177.856 119.332 177.404C118.882 176.953 120.459 175.9 121.21 175.9C121.886 175.9 122.562 176.502 122.186 178.156Z" fill="#E64D4A"/>
<path d="M122.036 180.338C121.961 180.338 121.886 180.338 121.81 180.187C121.66 180.037 121.66 179.811 121.81 179.736C122.411 179.21 122.937 178.082 122.937 178.082C123.012 177.931 123.237 177.856 123.387 177.931C123.538 178.006 123.613 178.232 123.538 178.382C123.538 178.458 123.012 179.661 122.261 180.262C122.186 180.262 122.111 180.338 122.036 180.338Z" fill="#E64D4A"/>
<path d="M123.538 181.165C123.463 181.165 123.387 181.09 123.312 181.014C123.162 180.864 123.162 180.638 123.312 180.563C123.913 180.037 124.439 178.909 124.439 178.909C124.514 178.758 124.739 178.683 124.889 178.758C125.04 178.833 125.115 179.059 125.04 179.209C125.04 179.285 124.514 180.488 123.763 181.09C123.688 181.09 123.613 181.165 123.538 181.165Z" fill="#E64D4A"/>
<path d="M125.04 181.917C124.965 181.917 124.889 181.917 124.814 181.766C124.664 181.616 124.664 181.39 124.814 181.315C125.415 180.789 125.941 179.661 125.941 179.661C126.016 179.51 126.241 179.435 126.391 179.51C126.542 179.585 126.617 179.811 126.542 179.961C126.542 180.037 126.016 181.24 125.265 181.842C125.19 181.917 125.115 181.917 125.04 181.917Z" fill="#E64D4A"/>
<path d="M74.168 45.0524L83.0791 42.615L82.6635 41.0915L73.7524 43.5288L74.168 45.0524Z" fill="#626264"/>
<path d="M73.7271 43.5643L82.6382 41.127L82.2226 39.6034L73.3115 42.0408L73.7271 43.5643Z" fill="#454545"/>
<path d="M77.2768 49.0326L82.3084 47.6789C82.9843 47.5285 83.3598 46.8517 83.2096 46.1748L83.1345 45.874L75.6997 47.9045L75.7748 48.2053C76.0001 48.8069 76.676 49.183 77.2768 49.0326Z" fill="#454545"/>
<path d="M75.7001 47.9045L83.1349 45.874C83.5104 45.7988 83.7357 45.3475 83.6606 44.9715L83.4353 44.1443L74.4985 46.5508L74.7238 47.378C74.874 47.754 75.3246 47.9797 75.7001 47.9045Z" fill="#626264"/>
<path d="M74.5659 46.6112L83.4761 44.1738L83.0605 42.6505L74.1503 45.0878L74.5659 46.6112Z" fill="#454545"/>
<path d="M61.8816 26.6221C60.2294 20.4554 63.8341 14.0631 69.9922 12.4086C76.1504 10.679 82.5337 14.3639 84.261 20.5306C85.012 23.3883 84.7116 26.3212 83.4349 28.803C81.933 31.8863 81.182 35.4208 82.0832 38.7298L82.1583 39.0306L73.1464 41.5123L73.0713 41.2115C72.1701 37.9025 69.6919 35.1952 66.8381 33.3152C64.51 31.8111 62.7077 29.4798 61.8816 26.6221Z" fill="#FFE04B"/>
<path d="M78.0277 30.7582L79.2293 20.6058C79.1542 20.6058 78.8538 20.6058 78.3281 20.7562C78.1779 19.8538 77.8024 18.9513 77.8024 18.9513C77.7273 18.8761 77.6522 18.8009 77.5771 18.8761C77.502 18.9513 77.4269 19.0265 77.502 19.1017C77.6522 19.4777 77.9526 20.2298 78.0277 20.9066C77.8024 20.9818 77.5771 21.057 77.3518 21.2074C77.2767 20.9066 77.1265 20.8314 77.0514 20.8314C76.8261 20.681 76.6008 20.7562 76.4506 20.9818C76.3004 21.2074 76.3004 21.5834 76.4506 21.9595C76.2253 22.1851 76 22.4107 75.8499 22.7115C73.5218 22.1099 72.0198 22.4859 70.5929 24.1403C70.2925 23.9899 69.9921 23.9147 69.6918 23.8395C69.6167 23.4635 69.3914 23.1627 69.1661 23.0123C68.9408 22.9371 68.7906 23.0123 68.6404 23.2379C68.5653 23.3131 68.4902 23.3883 68.5653 23.7643C68.2649 23.7643 68.0396 23.8395 67.8143 23.8395C67.5139 23.1627 67.3637 22.4107 67.3637 22.0347C67.3637 21.9595 67.2886 21.8843 67.1384 21.8843C67.0633 21.8843 66.9882 21.9595 66.9882 22.1099C66.9882 22.1851 67.1384 23.0875 67.4388 23.9899C66.9131 24.1403 66.6127 24.2908 66.5376 24.2908L72.6957 32.4127L75.174 41.4371L80.8064 39.8578L78.0277 30.7582ZM78.8538 20.7562L77.6522 30.5326C77.2767 30.3822 76.9012 30.307 76.5257 30.2318C76.6008 29.555 76.8261 27.6749 77.0514 25.7948C77.2016 24.4412 77.2016 23.3883 77.2016 22.6363C77.3518 22.6363 77.502 22.5611 77.6522 22.4859C78.1028 22.1851 78.1779 21.5834 78.1779 20.9066C78.4783 20.8314 78.7036 20.8314 78.8538 20.7562ZM76.9012 22.1099C76.8261 22.0347 76.751 21.8842 76.6759 21.7338C76.751 21.6586 76.8261 21.6586 76.9012 21.5834C76.8261 21.7338 76.9012 21.9595 76.9012 22.1099ZM77.8024 21.057C77.8024 21.5082 77.7273 21.9595 77.4269 22.1851C77.3518 22.2603 77.2767 22.2603 77.2016 22.2603C77.2016 21.8843 77.2016 21.5834 77.1265 21.3578C77.4269 21.2826 77.6522 21.1322 77.8024 21.057ZM76.5257 20.9066C76.5257 20.9066 76.6008 20.9066 76.6759 20.9066C76.751 20.9066 76.751 21.057 76.8261 21.2074C76.751 21.2826 76.6759 21.3578 76.5257 21.433C76.4506 21.2074 76.4506 20.9818 76.5257 20.9066ZM69.3914 24.4412C69.4665 24.2908 69.4665 24.1403 69.4665 23.9899C69.7668 24.0651 69.9921 24.1403 70.2174 24.2908L70.3676 24.366L70.4427 24.2156C71.8696 22.5611 73.2214 22.1851 75.5495 22.7867L75.6997 22.8619L75.7748 22.7115C75.925 22.4107 76.0751 22.2603 76.3004 22.0347C76.3755 22.1851 76.4506 22.3355 76.6008 22.4107C76.6759 22.4859 76.751 22.5611 76.8261 22.5611C76.8261 24.366 76.5257 27.3741 76.1502 30.1566C76.0751 30.1566 75.925 30.1566 75.8499 30.1566L75.0238 27.1485C75.2491 27.0733 75.3242 26.9229 75.2491 26.6973C75.174 26.4716 74.9487 26.3964 74.7985 26.3964L72.921 26.9229C72.6957 26.9981 72.6206 27.2237 72.6206 27.3741C72.6957 27.5997 72.8459 27.6749 73.0712 27.6749L73.8973 30.683C73.8222 30.7582 73.7471 30.7582 73.672 30.8334C71.8696 28.5773 70.1423 26.1708 69.2412 24.5916C69.3163 24.5916 69.3914 24.5164 69.3914 24.4412ZM75.6246 30.2318C75.174 30.307 74.7234 30.3822 74.2728 30.6078L73.4467 27.5997L74.7985 27.2237L75.6246 30.2318ZM69.091 23.8395C69.091 23.9899 69.091 24.1403 69.091 24.2908C69.0159 24.1403 68.9408 23.9899 68.8657 23.8395C68.8657 23.8395 69.0159 23.8395 69.091 23.8395ZM68.6404 23.0875C68.6404 23.0875 68.7155 23.0875 68.6404 23.0875C68.7155 23.0123 68.7155 23.0123 68.7155 23.0123C68.7906 23.0875 68.8657 23.2379 68.9408 23.3883C68.8657 23.3883 68.7155 23.3883 68.6404 23.3883C68.6404 23.3131 68.5653 23.1627 68.6404 23.0875ZM68.4151 23.7643C68.4902 23.9899 68.6404 24.2156 68.7906 24.5916C68.7155 24.5916 68.6404 24.5916 68.5653 24.5916C68.1898 24.5164 67.8894 24.2156 67.6641 23.8395C67.8894 23.8395 68.1898 23.7643 68.4151 23.7643ZM66.6878 24.1403C66.838 24.0651 67.0633 23.9899 67.3637 23.9147C67.6641 24.4412 68.0396 24.8924 68.5653 24.9676C68.7155 24.9676 68.8657 24.9676 69.0159 24.8924C69.3914 25.494 69.917 26.3964 70.7431 27.5245C71.8696 29.1038 72.9961 30.6078 73.4467 31.1343C73.1463 31.3599 72.8459 31.6607 72.6206 31.9615L66.6878 24.1403ZM72.9961 32.4127L73.0712 32.3375C74.0475 30.9086 75.9249 30.3822 77.502 31.1343L77.5771 31.2095L79.8301 39.4818L75.2491 40.7603L72.9961 32.4127Z" fill="#4C4C4C"/>
<path d="M74.7232 41.5874L72.1698 32.3374L66.0117 24.2155V24.1403C66.0117 24.1403 66.0117 24.1403 66.0117 24.0651V23.9899V23.9147V23.8395V23.7643L66.0868 23.689C66.0868 23.689 66.0868 23.689 66.1619 23.689C66.1619 23.689 66.3872 23.5386 66.8378 23.4634C66.5374 22.6362 66.4623 21.8842 66.4623 21.809C66.4623 21.7338 66.4623 21.5834 66.5374 21.5082C66.6125 21.4329 66.6876 21.3577 66.8378 21.3577C66.9129 21.3577 67.0631 21.3577 67.1382 21.4329C67.2133 21.5082 67.2884 21.5834 67.2884 21.7338C67.3635 22.1098 67.4386 22.7866 67.6639 23.313C67.8141 23.313 67.8892 23.313 68.0394 23.2378C68.0394 23.0122 68.1145 22.937 68.1896 22.7866C68.4149 22.4858 68.7153 22.3354 69.0157 22.4858C69.241 22.6362 69.4663 22.937 69.6165 23.313C69.8418 23.3882 70.0671 23.4634 70.2923 23.5386C71.7192 21.9594 73.2963 21.5082 75.5493 22.1098C75.6995 21.8842 75.8497 21.7338 75.9999 21.5082C75.9248 21.2073 75.8497 20.8313 76.075 20.4553C76.3003 20.1545 76.6007 20.0793 76.901 20.3049C76.9761 20.3801 77.1263 20.4553 77.2014 20.6057C77.2765 20.5305 77.4267 20.5305 77.5018 20.4553C77.4267 19.8537 77.2014 19.2521 77.0512 18.876C76.9761 18.6504 77.0512 18.4248 77.2765 18.3496C77.3516 18.2744 77.5018 18.2744 77.5769 18.3496C77.652 18.4248 77.7271 18.5 77.8022 18.5752C77.8022 18.5752 78.1777 19.4025 78.3279 20.2297C78.7034 20.1545 78.9287 20.0793 79.0038 20.0793H79.0789C79.154 20.0793 79.154 20.0793 79.154 20.0793C79.154 20.0793 79.154 20.0793 79.2291 20.0793L79.3042 20.1545C79.3042 20.1545 79.3793 20.1545 79.3793 20.2297L79.4544 20.3049C79.4544 20.3049 79.4544 20.3049 79.4544 20.3801V20.5305C79.4544 20.5305 79.4544 20.5305 79.4544 20.6057L78.2528 30.683L80.8062 39.933L74.7232 41.5874ZM72.6204 32.3374L75.0236 41.061L80.2805 39.6321L77.8773 30.9086L77.5769 30.7582C77.2765 30.6077 76.901 30.5325 76.5256 30.4573H76.1501C76.075 30.4573 75.9999 30.4573 75.9248 30.4573H75.6244C75.1738 30.5325 74.7232 30.6077 74.3477 30.8334H74.2726L74.1224 30.9086C74.0473 30.9838 73.9722 30.9838 73.8971 31.059L73.5967 31.2846C73.2963 31.5102 73.071 31.811 72.8457 32.1118L72.6204 32.3374ZM66.988 24.2155L72.6204 31.5854C72.7706 31.435 72.9208 31.2094 73.1461 31.059C72.6204 30.3821 71.569 29.0285 70.5927 27.6748C69.9169 26.6972 69.3161 25.8699 68.9406 25.1931C68.7904 25.1931 68.7153 25.1931 68.5651 25.1931C68.0394 25.1179 67.5888 24.8171 67.2133 24.1403C67.1382 24.2155 67.0631 24.2155 66.988 24.2155ZM69.5414 24.6667C70.4425 26.0956 72.0196 28.2764 73.7469 30.4573L73.071 27.9004C72.8457 27.9004 72.6204 27.6748 72.5453 27.4492C72.4702 27.2988 72.5453 27.1484 72.6204 26.998C72.6955 26.8476 72.8457 26.7724 72.9959 26.6972L74.8734 26.1708C75.1738 26.0956 75.5493 26.246 75.6244 26.622C75.6995 26.8476 75.6244 27.0732 75.3991 27.2236L76.075 29.7805C76.4505 26.998 76.6757 24.2907 76.6757 22.6362C76.6006 22.561 76.6007 22.561 76.5256 22.4858C76.4505 22.4106 76.4504 22.3354 76.3754 22.3354C76.2252 22.4858 76.1501 22.6362 76.075 22.7866L75.9248 23.0874L75.6244 23.0122C73.3714 22.3354 72.0947 22.7114 70.7429 24.3659L70.5176 24.5915L70.2173 24.4411C70.0671 24.3659 69.9169 24.2907 69.7667 24.2155C69.7667 24.2907 69.7667 24.3659 69.6916 24.4411C69.6165 24.5163 69.5414 24.5915 69.5414 24.6667ZM73.7469 27.8252L74.4228 30.3069C74.7232 30.1565 75.0236 30.0813 75.324 30.0813L74.6481 27.5996L73.7469 27.8252ZM76.8259 30.0813C77.0512 30.1565 77.2765 30.1565 77.5018 30.2317L78.6283 21.0569C78.5532 21.0569 78.4781 21.0569 78.4781 21.1321C78.4781 21.8842 78.2528 22.4106 77.8773 22.7114C77.7271 22.7866 77.652 22.8618 77.5018 22.8618C77.5018 23.6138 77.4267 24.6667 77.3516 25.7947C77.1263 27.5244 76.901 29.2541 76.8259 30.0813ZM74.9485 26.6972L73.071 27.2236C72.9959 27.2236 72.9959 27.2988 72.9959 27.2988C72.9959 27.2988 72.9959 27.374 72.9959 27.4492C72.9959 27.5244 73.071 27.5996 73.2212 27.5244L73.4465 27.4492L75.0236 26.998C75.0987 26.998 75.1738 26.9228 75.0987 26.7724C75.0987 26.6972 75.0236 26.6972 74.9485 26.6972ZM68.0394 24.0651C68.1896 24.2155 68.2647 24.3659 68.4149 24.3659C68.3398 24.2155 68.2647 24.1403 68.2647 23.9899C68.1896 23.9899 68.1145 23.9899 68.0394 24.0651ZM77.4267 21.5082C77.4267 21.6586 77.4267 21.7338 77.4267 21.8842C77.5018 21.7338 77.5769 21.5834 77.5769 21.4329C77.5769 21.4329 77.5018 21.5082 77.4267 21.5082ZM75.0987 40.9106L72.7706 32.3374L72.9208 32.187C73.9722 30.683 75.9248 30.1565 77.652 30.9086L77.8773 30.9838L80.2054 39.5569L75.0987 40.9106ZM73.2212 32.4126L75.3991 40.3842L79.6046 39.2561L77.4267 31.2846C75.9248 30.6077 74.1975 31.059 73.2212 32.4126Z" fill="#4C4C4C"/>
<path d="M73.1465 42.2643L82.5339 39.7074C82.9094 39.6322 83.1347 39.181 83.0596 38.805C82.9845 38.429 82.5339 38.2034 82.1584 38.2786L72.771 40.8355C72.3955 40.9107 72.1702 41.3619 72.2453 41.7379C72.3955 42.1139 72.771 42.3395 73.1465 42.2643Z" fill="#626264"/>
<path d="M69.2413 9.09969C68.3402 9.3253 67.439 8.79888 67.2137 7.89644L65.7117 2.10579C65.4864 1.20335 66.0121 0.300912 66.9133 0.0753019C67.8145 -0.150308 68.7157 0.376115 68.941 1.27855L70.4429 7.0692C70.6682 7.97164 70.1425 8.87408 69.2413 9.09969Z" fill="#FFE04B"/>
<path d="M62.0317 13.3863C61.506 13.5367 60.8301 13.3863 60.4546 12.9351L56.2491 8.72369C55.5732 8.04686 55.5732 6.99401 56.2491 6.39239C56.925 5.71556 57.9764 5.71556 58.5772 6.39239L62.7827 10.6038C63.4586 11.2806 63.4586 12.3334 62.7827 12.9351C62.5574 13.1607 62.257 13.3111 62.0317 13.3863Z" fill="#FFE04B"/>
<path d="M57.8262 20.7562C57.5258 20.8314 57.2254 20.8314 57.0001 20.7562L51.2175 19.177C50.3163 18.9514 49.7906 18.0489 50.0159 17.1465C50.2412 16.244 51.1424 15.7176 52.0436 15.9432L57.8262 17.5225C58.7274 17.7481 59.2531 18.6505 59.0278 19.553C58.8776 20.1546 58.427 20.6058 57.8262 20.7562Z" fill="#FFE04B"/>
<path d="M57.9014 29.1789L52.1188 30.683C51.2176 30.9086 50.3164 30.3822 50.0911 29.4797C49.8658 28.5773 50.3915 27.6748 51.2927 27.4492L57.0753 25.9452C57.9765 25.7196 58.8777 26.246 59.103 27.1484C59.3283 27.9757 58.8026 28.8781 57.9014 29.1789Z" fill="#FFE04B"/>
<path d="M57.9766 40.6099C57.4509 40.7603 56.775 40.6099 56.3995 40.1587C55.7236 39.4819 55.7236 38.429 56.3995 37.8274L60.605 33.616C61.2809 32.9392 62.3323 32.9392 62.9331 33.616C63.609 34.2928 63.609 35.3457 62.9331 35.9473L58.7276 40.1587C58.5023 40.3843 58.2019 40.5347 57.9766 40.6099Z" fill="#FFE04B"/>
<path d="M95.0752 30.4574C94.7748 30.5326 94.4744 30.5326 94.2491 30.4574L88.4665 28.8781C87.5653 28.6525 87.0396 27.7501 87.2649 26.8476C87.4902 25.9452 88.3914 25.4188 89.2926 25.6444L95.0752 27.2237C95.9764 27.4493 96.5021 28.3517 96.2768 29.2541C96.1266 29.8558 95.6009 30.307 95.0752 30.4574Z" fill="#FFE04B"/>
<path d="M95 18.8762L89.2174 20.3802C88.3162 20.6059 87.415 20.0794 87.1897 19.177C86.9644 18.2746 87.4901 17.3721 88.3913 17.1465L94.1739 15.6424C95.0751 15.4168 95.9763 15.9433 96.2016 16.8457C96.4269 17.7481 95.9012 18.6506 95 18.8762Z" fill="#FFE04B"/>
<path d="M85.0117 13.1607C84.486 13.3111 83.8101 13.1607 83.4347 12.7095C82.7588 12.0327 82.7588 10.9798 83.4347 10.3782L87.6402 6.1668C88.3161 5.48997 89.3675 5.48997 89.9682 6.1668C90.6441 6.84363 90.6441 7.89648 89.9682 8.4981L85.7627 12.7095C85.5374 12.9351 85.237 13.0855 85.0117 13.1607Z" fill="#FFE04B"/>
<path d="M77.6525 9.0245C77.3521 9.0997 77.0517 9.0997 76.8264 9.0245C75.9252 8.79889 75.3995 7.89645 75.6248 6.99401L77.2019 1.20336C77.4272 0.30092 78.3284 -0.225503 79.2295 0.000106558C80.1307 0.225716 80.6564 1.12816 80.4311 2.03059L78.854 7.82124C78.7038 8.42287 78.1782 8.87409 77.6525 9.0245Z" fill="#FFE04B"/>
<path d="M96.1268 147.323C96.6525 159.882 97.9291 169.583 98.8303 175.148C98.8303 175.148 103.562 176.803 107.467 175.449C107.467 175.449 107.692 154.543 107.917 147.549C108.143 141.307 109.344 122.657 109.344 122.657H112.273L115.953 108.067C115.953 108.067 96.7276 105.435 96.2019 106.939C96.0517 107.315 95.6762 113.106 95.3758 118.445C95.3007 120.325 95.1505 122.356 95.0754 124.537C94.775 131.455 95.8264 139.577 96.1268 147.323Z" fill="#393F6D"/>
<path d="M123.087 147.323C122.561 159.882 121.284 169.583 120.383 175.148C120.383 175.148 115.652 176.803 111.747 175.449C111.747 175.449 111.522 154.543 111.296 147.549C111.071 141.307 109.869 122.657 109.869 122.657H106.941L103.261 108.067C103.261 108.067 122.486 105.435 123.012 106.939C123.162 107.315 123.537 113.106 123.838 118.445C123.913 120.325 124.063 122.356 124.138 124.537C124.364 131.455 123.387 139.577 123.087 147.323Z" fill="#393F6D"/>
<path d="M83.8103 77.7602C77.6522 65.8029 70.7431 59.561 70.7431 59.561L68.0396 62.3436C68.0396 62.3436 73.7471 73.3984 75.8498 79.0387C76.3004 80.2419 84.4862 79.1139 83.8103 77.7602Z" fill="#F9D1BA"/>
<path d="M81.4822 87.7623C73.6719 78.9635 69.166 65.0509 69.166 65.0509C69.166 65.0509 73.5217 62.3436 74.3478 62.6444C75.1739 62.87 85.2372 77.0834 87.9407 82.3477C88.8419 84.1526 83.8854 90.5448 81.4822 87.7623Z" fill="#F47F31"/>
<path d="M105.889 67.1566C98.4545 61.8924 78.6284 80.4676 78.6284 81.5956C78.6284 82.7237 82.7589 88.8151 84.4861 87.9879C86.2134 87.1607 111.672 71.2176 105.889 67.1566Z" fill="#F47F31"/>
<path d="M73.4468 61.0651L68.7907 64.4493C68.6405 64.5997 68.5654 64.8253 68.5654 64.9757L69.0911 66.6302C69.1662 66.931 69.5417 67.0814 69.8421 66.931L75.3994 63.622C75.6998 63.4716 75.6998 63.0956 75.5496 62.87L74.1227 61.1403C73.9725 60.9899 73.6721 60.9147 73.4468 61.0651Z" fill="#E77026"/>
<path d="M113.85 64.5998C113.85 64.5998 119.257 65.2766 124.364 69.7136C124.364 69.7136 119.633 71.9697 123.237 80.5429L124.364 111.827C124.364 111.827 110.095 117.768 94.0239 113.557C94.0239 113.557 94.0239 74.7522 97.1781 69.9392C100.633 64.5998 106.565 63.7726 113.85 64.5998Z" fill="#FF9440"/>
<path d="M111.146 60.8396L112.123 66.0286C112.123 66.0286 110.245 67.9839 107.542 67.9839C104.838 67.9839 105.138 66.0286 105.138 66.0286V60.8396H111.146Z" fill="#F9D1BA"/>
<path d="M98.0791 49.4087C98.0791 57.0042 100.632 63.1709 108.518 63.1709C114.3 63.1709 118.957 57.0042 118.957 49.4087C118.957 41.8131 114.3 35.6465 108.518 35.6465C102.735 35.6465 98.0791 41.8131 98.0791 49.4087Z" fill="#F9D1BA"/>
<path d="M101.308 39.181C101.308 39.181 98.6046 43.0916 98.0038 49.4086C98.0038 49.4086 94.3991 43.618 98.4544 36.0977L101.308 39.181Z" fill="#4F4F50"/>
<path d="M120.158 51.8152C120.158 51.8152 119.558 55.2745 116.479 58.1323C116.479 58.1323 118.131 53.9961 118.431 53.0936C118.431 53.0936 119.558 52.9432 120.158 51.8152Z" fill="#685656"/>
<path d="M98.2295 52.7176C98.2295 52.7176 98.7552 55.6506 100.332 54.8985C102.961 53.6201 104.838 53.3945 104.838 53.3945C104.838 53.3945 105.063 54.2969 107.392 54.1465C107.392 54.1465 110.471 54.5225 112.123 55.9514C113.625 57.2298 116.554 54.8985 118.431 53.0936C119.407 52.1912 120.158 51.8152 120.158 51.8152C120.158 51.8152 119.032 61.8924 108.293 63.3965C99.2058 64.6749 98.2295 52.7176 98.2295 52.7176Z" fill="#626264"/>
<path d="M104.387 48.4311C104.312 49.1831 103.711 49.7847 103.035 49.7847C102.36 49.7095 101.834 49.1079 101.909 48.2807C101.984 47.5286 102.585 46.927 103.261 46.927C103.937 47.0022 104.462 47.679 104.387 48.4311Z" fill="#1C1A21"/>
<path d="M112.498 48.6567C112.423 49.4087 111.822 50.0103 111.146 50.0103C110.47 49.9351 109.945 49.3335 110.02 48.5062C110.095 47.7542 110.696 47.1526 111.372 47.1526C112.048 47.2278 112.573 47.8294 112.498 48.6567Z" fill="#1C1A21"/>
<path d="M104.613 57.4552C104.613 57.4552 108.293 59.7113 110.996 56.6279C110.996 56.6279 110.32 60.9145 107.917 61.0649C105.514 61.2153 104.613 57.4552 104.613 57.4552Z" fill="white"/>
<path d="M107.767 61.441C105.214 61.441 104.312 57.7561 104.237 57.6057C104.237 57.4553 104.237 57.3049 104.387 57.2297C104.538 57.1545 104.688 57.1545 104.763 57.2297C104.913 57.3049 108.218 59.3354 110.696 56.4024C110.771 56.252 110.996 56.252 111.071 56.3272C111.221 56.4024 111.297 56.5528 111.297 56.7032C111.297 56.8537 110.546 61.2906 107.917 61.441C107.917 61.441 107.842 61.441 107.767 61.441ZM105.138 58.1321C105.514 59.1097 106.415 60.7642 107.842 60.689C109.269 60.6138 110.02 58.8089 110.32 57.6057C108.443 59.1097 106.265 58.5833 105.138 58.1321Z" fill="#F6AE94"/>
<path d="M113.775 44.746C113.324 44.746 113.099 44.746 112.799 44.746C112.498 44.746 112.273 44.6708 112.048 44.6708C111.822 44.6708 111.597 44.5956 111.297 44.5204C110.996 44.4452 110.696 44.37 110.32 44.1444C110.696 43.3924 111.522 43.1668 112.273 43.3172C112.648 43.3924 112.949 43.5428 113.249 43.7684C113.474 43.994 113.7 44.2948 113.775 44.746Z" fill="#685656"/>
<path d="M101.458 44.8963C101.534 44.4451 101.759 44.1443 101.984 43.9187C102.285 43.693 102.585 43.5426 102.96 43.4674C103.711 43.3922 104.462 43.6178 104.913 44.2947C104.538 44.4451 104.237 44.5203 103.937 44.6707C103.636 44.7459 103.411 44.8211 103.186 44.8211C102.96 44.8211 102.735 44.8963 102.435 44.8963C102.134 44.8963 101.834 44.8963 101.458 44.8963Z" fill="#685656"/>
<path d="M106.79 54.5223C106.115 54.5223 105.213 54.4471 104.763 54.0711C104.613 53.9207 104.462 53.6951 104.462 53.4695C104.462 52.0406 106.039 50.8374 106.039 50.8374C106.19 50.6869 106.415 50.7622 106.49 50.9126C106.64 51.063 106.565 51.2886 106.415 51.3638C106.415 51.3638 105.063 52.4166 105.063 53.4695C105.063 53.4695 105.063 53.5447 105.138 53.5447C105.439 53.8455 106.565 53.8455 107.316 53.8455C107.541 53.8455 107.692 53.9959 107.692 54.1463C107.692 54.3719 107.541 54.5223 107.391 54.5223C107.316 54.4471 107.091 54.5223 106.79 54.5223Z" fill="#F6AE94"/>
<path d="M121.51 67.683C130.447 69.6383 134.352 93.5529 132.399 97.3131C131.874 98.3659 124.589 97.6139 124.063 95.7338C123.538 93.9289 114.601 66.1789 121.51 67.683Z" fill="#F47F31"/>
<path d="M107.542 68.0591L111.672 63.3965L112.723 64.5997L112.123 71.9697C112.123 71.8944 108.668 68.9615 107.542 68.0591Z" fill="#F47F31"/>
<path d="M107.542 68.0591L105.139 63.5469L103.862 64.9005L102.735 70.992C102.81 70.992 104.237 70.6912 107.542 68.0591Z" fill="#F47F31"/>
<path d="M118.431 36.1728C113.7 32.3374 100.407 30.5326 98.3798 33.7663C97.4786 35.2704 97.8541 36.8496 98.6051 38.4289C99.1308 39.557 100.332 40.6098 102.886 40.8354C105.664 41.061 111.071 40.3842 114 40.8354C114.977 40.9858 115.728 41.8131 116.253 42.9411C117.455 45.1972 117.905 48.3557 117.905 48.3557C118.807 46.8517 121.135 47.6789 121.135 47.6789C121.135 47.6789 123.162 40.0082 118.431 36.1728Z" fill="#626264"/>
<path d="M117.454 47.6038C117.454 47.6038 120.308 46.0997 121.134 47.6038C121.96 49.1078 119.933 53.9961 117.454 52.9432C114.976 51.9656 117.454 47.6038 117.454 47.6038Z" fill="#F9D1BA"/>
<path d="M132.174 96.1098C128.569 109.045 122.787 117.844 122.787 117.844L119.708 116.49C119.708 116.49 123.237 102.427 124.138 96.561C124.289 95.2074 132.549 94.681 132.174 96.1098Z" fill="#F9D1BA"/>
<path d="M132.925 94.8314C130.823 106.337 125.265 114.234 125.265 114.234C125.265 114.234 120.834 114.159 120.384 113.407C119.933 112.579 122.937 97.3131 124.89 91.748C125.641 89.7927 134.052 88.8151 132.925 94.8314Z" fill="#F47F31"/>
<path d="M125.866 114.61L120.158 113.933C119.933 113.933 119.783 113.782 119.708 113.557L119.332 111.902C119.257 111.602 119.482 111.301 119.858 111.301L126.316 111.451C126.617 111.451 126.842 111.752 126.767 112.053L126.392 114.234C126.392 114.459 126.166 114.61 125.866 114.61Z" fill="#E77026"/>
<path d="M122.937 119.874C122.636 120.927 121.51 123.86 120.534 124.612C120.083 124.988 119.707 124.913 119.557 124.612C119.182 125.138 118.656 125.89 118.055 125.815C117.755 125.815 117.605 125.59 117.605 125.439C117.079 125.815 116.328 126.266 115.877 125.74C115.652 125.439 115.802 124.988 116.103 124.612C115.802 124.537 115.577 124.386 115.502 124.01C115.427 123.484 115.727 122.807 116.028 122.356C116.253 121.98 116.553 121.378 116.854 121.077C117.079 120.852 117.98 119.573 117.83 119.273C117.68 118.972 117.079 120.1 116.854 120.325C116.703 120.476 116.553 120.626 116.403 120.701C116.028 120.852 115.577 120.777 115.427 120.325C115.051 119.197 118.731 115.888 118.731 115.888C119.632 115.287 120.458 115.362 121.285 116.039C122.261 117.016 123.838 116.565 122.937 119.874Z" fill="#F9D1BA"/>
<path d="M71.6442 53.4697C71.2687 53.244 70.4427 53.4697 70.5929 53.9961C70.8932 54.9737 70.7431 55.6505 70.668 56.4778C69.8419 55.8762 69.6917 54.8233 69.3913 53.9209C69.0909 52.868 68.7154 51.8904 68.1897 50.9879C67.5889 49.8599 67.1383 48.8823 66.0869 48.431C65.9367 48.3558 65.1106 48.6566 65.2608 49.2583C65.6363 51.1384 66.2371 52.6424 67.0632 54.4473C66.913 54.1465 66.6877 53.9209 66.3122 53.6953C66.162 53.6201 65.7114 53.8457 65.6363 54.0713C65.5612 54.4473 65.5612 54.7481 65.6363 55.0489C65.411 54.8233 65.1106 54.7481 64.8102 54.9737C64.3597 55.4249 64.3596 56.177 64.5849 56.8538C64.5098 56.7786 64.4348 56.7786 64.4348 56.7034C64.3597 56.6282 64.2095 56.7786 64.1344 56.8538C63.083 58.8843 65.411 61.8172 67.4387 62.494C69.8419 63.3213 71.5691 61.742 71.9446 60.3884C72.245 59.0347 73.4466 54.3721 71.6442 53.4697Z" fill="#F9D1BA"/>
<path d="M115.878 50.0102H117.38C117.38 50.0102 118.131 46.25 118.056 45.2724C117.98 44.2947 115.953 41.8882 115.277 41.437C115.277 41.437 116.554 46.7012 115.878 50.0102Z" fill="#626264"/>
</g>
<defs>
<clipPath id="clip0">
<rect width="133" height="185" fill="white"/>
</clipPath>
</defs>
</svg>
